<svg width="571" height="581" viewBox="0 0 571 581" fill="none" xmlns="http://www.w3.org/2000/svg">
<path d="M130.568 128.854C118.58 126.42 110.427 124.1 108.021 122.079C97.1819 112.973 90.6782 98.6652 88.5103 90.4271C86.3423 82.1891 81.5729 58.3421 82.4401 40.5652C83.1338 26.3437 86.7759 10.9371 88.5103 5.01146C203.409 -3.66019 448.73 11.255 460.524 20.6204C475.265 32.3271 487.406 57.0413 487.406 75.6853C487.406 94.3294 469.195 139.855 453.586 147.66C437.977 155.464 385.08 155.031 315.707 150.695C290.631 149.128 257.963 146.144 225.956 142.543M130.568 128.854L147.911 168.038C148.489 169.195 148.986 172.496 147.911 174.108M130.568 128.854C143.108 131.4 159.845 134.072 178.591 136.656C182.588 137.207 186.677 137.754 190.836 138.295M147.911 174.108C146.177 176.71 137.939 186.249 132.736 191.452C128.573 195.614 115.392 206.483 109.322 211.396C108.6 212.264 107.154 214.345 107.154 215.732L109.756 217.9C111.924 222.67 116.867 232.989 119.295 236.111M147.911 174.108C140.396 187.694 124.324 218.507 120.162 233.076L119.295 236.111M119.295 236.111C119.006 237.845 118.601 242.094 119.295 245.216C120.162 249.118 122.763 253.454 124.064 255.188C125.365 256.923 148.345 282.07 151.813 287.707C155.282 293.344 164.821 306.351 163.52 324.128M163.52 324.128C163.52 324.128 164.272 323.529 164.821 323.261M163.52 324.128L164.821 323.261M163.52 324.128C163.318 324.229 162.932 324.613 162.599 325.429M164.821 323.261C166.645 322.367 170.024 323.261 170.024 323.261L173.926 326.296C179.852 332.221 193.784 345.633 202.109 351.877C210.434 358.121 213.96 367.197 214.683 370.955C215.029 381.708 208.757 387.575 205.577 389.165C203.149 390.899 195.605 393.356 192.136 394.368C191.366 394.593 190.154 394.94 188.668 395.257C185.821 395.864 181.966 396.36 178.262 395.67M157.234 361.416C156.152 357.539 155.581 354.715 155.715 354.045C156.149 351.877 158.317 343.639 158.751 341.905C159.184 340.17 161.786 328.897 162.219 326.729C162.323 326.208 162.456 325.779 162.599 325.429M157.234 361.416C159.653 370.082 164.631 384.009 170.024 390.899C172.225 393.712 175.191 395.098 178.262 395.67M157.234 361.416C157.234 362.717 157.234 365.492 157.234 366.185C157.234 367.052 148.345 430.789 144.442 522.708C144.442 529.212 144.702 534.762 150.946 546.555C157.016 555.516 174.533 574.131 196.039 576.906C217.544 579.681 229.28 565.633 232.459 558.262C242.067 529.87 265.731 443.771 280.669 340.451C280.904 338.827 281.021 337.179 281.021 335.537V330.632C281.165 325.718 282.238 315.386 283.622 312.421C286.657 305.917 293.595 298.98 293.595 276.867M293.595 276.867C293.595 252.153 288.392 233.076 281.021 213.564M293.595 276.867C293.306 285.828 289.085 305.484 274.517 312.421C256.307 321.093 214.683 309.386 184.332 246.083C153.981 182.78 172.192 148.442 190.836 138.295M258.041 174.542C253.85 168.24 241.565 153.018 225.956 142.543M225.956 142.543C214.014 141.199 202.165 139.77 190.836 138.295M178.262 395.67C181.875 395.381 190.229 393.067 194.738 386.13C200.374 377.458 199.507 373.123 198.64 368.787C197.773 364.451 193.871 357.08 179.996 341.905C176.816 337.424 170.11 328.03 168.723 326.296C167.335 324.561 164.387 324.128 162.599 325.429M157.779 133.977L162.115 144.383C162.693 145.684 163.676 149.152 162.982 152.621C162.288 156.09 161.826 157.824 161.681 158.257C156.369 170.253 151.38 205.691 173.926 251.478C202.903 310.323 247.864 330.536 271.378 321.718C274.846 320.417 281.784 316.081 284.705 310.323" stroke="white" stroke-width="2"/>
<path d="M254.468 181.207C251.403 179.372 248.513 178.851 246.31 180.03C241.02 182.863 241.696 194.43 247.819 205.866C253.943 217.301 263.196 224.275 268.486 221.443C270.949 220.123 272.119 216.91 272.047 212.697" stroke="white" stroke-width="1.73433"/>
<ellipse cx="273.802" cy="191.167" rx="11.2731" ry="20.8119" transform="rotate(-31.65 273.802 191.167)" stroke="white" stroke-width="1.73433"/>
<ellipse cx="271.324" cy="193.219" rx="14.4743" ry="22.9607" transform="rotate(-31.6528 271.324 193.219)" stroke="white" stroke-width="1.73433"/>
<path d="M225.342 214.264C229.862 212.059 230.377 203.817 226.493 195.853C222.609 187.89 215.797 183.222 211.277 185.426M225.342 214.264C220.822 216.468 214.01 211.8 210.126 203.836C206.242 195.873 206.757 187.63 211.277 185.426M225.342 214.264C225.342 214.264 224.975 214.706 220.455 216.91C215.935 219.115 209.123 214.446 205.239 206.483C201.355 198.519 202.637 190.585 205.238 188.85C207.84 187.116 211.277 185.426 211.277 185.426" stroke="white" stroke-width="1.73433"/>
<path d="M251.983 256.823C256.502 254.618 257.018 246.376 253.134 238.412C249.25 230.449 242.437 225.781 237.918 227.985M251.983 256.823C247.463 259.027 240.65 254.359 236.766 246.395C232.882 238.432 233.398 230.189 237.918 227.985M251.983 256.823C251.983 256.823 251.615 257.265 247.096 259.469C242.576 261.674 235.763 257.005 231.879 249.042C227.995 241.078 229.278 233.144 231.879 231.409C234.48 229.675 237.918 227.985 237.918 227.985" stroke="white" stroke-width="1.73433"/>
<path d="M279.568 252.268C282.377 258.959 282.005 265.885 278.736 267.737C275.467 269.589 270.539 265.666 267.73 258.975C264.921 252.284 265.294 245.359 268.563 243.507C271.832 241.654 276.759 245.577 279.568 252.268Z" stroke="white" stroke-width="1.73433"/>
<path d="M274.052 283.341C277.329 291.186 276.894 299.306 273.08 301.477C269.267 303.649 263.518 299.05 260.241 291.205C256.963 283.361 257.398 275.241 261.212 273.069C265.026 270.898 270.774 275.497 274.052 283.341Z" stroke="white" stroke-width="1.73433"/>
<path d="M223.338 197.522C221.66 197.397 219.352 197.522 219.352 197.522M223.338 197.522C224.602 198.173 225.317 199.392 225.756 200.709C226.19 202.009 226.013 203.778 224.602 204.001C223.793 204.071 221.63 204.02 221.056 204.005C220.973 204.003 220.904 203.94 220.891 203.858C220.272 200.079 219.946 199.273 219.352 197.522M223.338 197.522C224.619 194.667 221.9 192.502 221.009 192.113C221.002 192.109 220.995 192.106 220.988 192.102C220.479 191.808 218.374 191.873 217.04 191.884C216.908 191.885 216.825 192.028 216.889 192.143C217.959 194.084 218.704 195.613 219.352 197.522" stroke="white" stroke-width="1.30075"/>
<path d="M246.972 246.901C247.233 244.618 247.218 243.895 247.233 242.665M253.719 246.424C251.847 240.782 248.567 236.364 246.734 234.357C246.613 234.225 246.398 234.347 246.438 234.522C246.857 236.339 247.274 239.46 247.233 242.665M247.233 242.665C247.971 242.69 249.983 242.656 251.71 242.373" stroke="white" stroke-width="1.30075" stroke-linecap="round" stroke-linejoin="round"/>
<path d="M271.646 284.845C273.83 289.69 273.541 294.705 270.998 296.046C268.455 297.388 264.623 294.547 262.438 289.702C262.269 289.326 262.114 288.95 261.975 288.574M271.646 284.845C269.461 280 265.628 277.159 263.086 278.5C260.74 279.738 260.312 284.102 261.975 288.574M271.646 284.845C271.99 285.833 272.342 287.876 270.998 288.141C269.654 288.405 267.8 286.517 267.042 285.539C266.175 284.527 264.04 282.677 262.438 283.371C260.836 284.065 261.462 287.129 261.975 288.574" stroke="white" stroke-width="1.30075"/>
<path d="M264 287.734C263.821 287.336 263.845 286.925 264.053 286.815C264.262 286.705 264.576 286.938 264.756 287.335C264.77 287.366 264.782 287.397 264.794 287.428C264.93 287.795 264.895 288.153 264.703 288.254C264.494 288.364 264.179 288.131 264 287.734Z" stroke="white" stroke-width="0.867164"/>
<path d="M268.868 255.709C268.715 254.19 269.002 253.208 269.89 252.765C269.911 252.755 269.935 252.749 269.958 252.748L275.991 252.518C276.007 252.518 276.023 252.519 276.039 252.523C277.315 252.849 278.099 254.027 278.523 255.189C279.024 256.561 278.768 258.034 277.818 258.371C277.804 258.376 277.788 258.379 277.773 258.379L271.216 258.726C270.4 258.726 269.024 257.246 268.868 255.709Z" stroke="white" stroke-width="1.30075" stroke-linecap="round"/>
</svg>
