<svg width="571" height="581" viewBox="0 0 571 581" fill="none" xmlns="http://www.w3.org/2000/svg">
<path d="M440.672 129.354C452.659 126.92 460.812 124.6 463.218 122.579C474.057 113.473 480.561 99.1652 482.729 90.9271C484.897 82.6891 489.666 58.8421 488.799 41.0652C488.105 26.8437 484.463 11.4371 482.729 5.51146C367.83 -3.16019 122.509 11.755 110.716 21.1204C95.9738 32.8271 83.8335 57.5413 83.8335 76.1853C83.8335 94.8294 102.044 140.355 117.653 148.16C133.262 155.964 186.159 155.531 255.532 151.195C280.609 149.628 313.277 146.644 345.283 143.043M440.672 129.354L423.328 168.538C422.75 169.695 422.253 172.996 423.328 174.608M440.672 129.354C428.132 131.9 411.395 134.572 392.648 137.156C388.651 137.707 384.562 138.254 380.404 138.795M423.328 174.608C425.063 177.21 433.301 186.749 438.504 191.952C442.666 196.114 455.847 206.983 461.917 211.896C462.64 212.764 464.085 214.845 464.085 216.232L461.483 218.4C459.316 223.17 454.373 233.489 451.945 236.611M423.328 174.608C430.844 188.194 446.915 219.007 451.078 233.576L451.945 236.611M451.945 236.611C452.234 238.345 452.638 242.594 451.945 245.716C451.078 249.618 448.476 253.954 447.175 255.688C445.875 257.423 422.895 282.57 419.426 288.207C415.957 293.844 406.419 306.851 407.719 324.628M407.719 324.628C407.719 324.628 406.967 324.029 406.419 323.761M407.719 324.628L406.419 323.761M407.719 324.628C407.922 324.729 408.308 325.113 408.64 325.929M406.419 323.761C404.594 322.867 401.216 323.761 401.216 323.761L397.313 326.796C391.388 332.721 377.455 346.133 369.131 352.377C360.806 358.621 357.279 367.697 356.557 371.455C356.21 382.208 362.482 388.075 365.662 389.665C368.09 391.399 375.634 393.856 379.103 394.868C379.873 395.093 381.085 395.44 382.572 395.757C385.418 396.364 389.273 396.86 392.978 396.17M414.005 361.916C415.088 358.039 415.658 355.215 415.524 354.545C415.09 352.377 412.922 344.139 412.489 342.405C412.055 340.67 409.454 329.397 409.02 327.229C408.916 326.708 408.783 326.279 408.64 325.929M414.005 361.916C411.586 370.582 406.608 384.509 401.216 391.399C399.014 394.212 396.048 395.598 392.978 396.17M414.005 361.916C414.005 363.217 414.005 365.992 414.005 366.685C414.005 367.552 422.895 431.289 426.797 523.208C426.797 529.712 426.537 535.262 420.293 547.055C414.223 556.016 396.706 574.631 375.201 577.406C353.695 580.181 341.959 566.133 338.78 558.762C329.172 530.37 305.508 444.271 290.571 340.951C290.336 339.327 290.219 337.679 290.219 336.037V331.132C290.074 326.218 289.001 315.886 287.617 312.921C284.582 306.417 277.645 299.48 277.645 277.367M277.645 277.367C277.645 252.653 282.848 233.576 290.219 214.064M277.645 277.367C277.934 286.328 282.154 305.984 296.722 312.921C314.933 321.593 356.557 309.886 386.907 246.583C417.258 183.28 399.048 148.942 380.404 138.795M313.198 175.042C317.39 168.74 329.675 153.518 345.283 143.043M345.283 143.043C357.225 141.699 369.075 140.27 380.404 138.795M392.978 396.17C389.364 395.881 381.011 393.567 376.501 386.63C370.865 377.958 371.732 373.623 372.599 369.287C373.466 364.951 377.369 357.58 391.243 342.405C394.423 337.924 401.129 328.53 402.516 326.796C403.904 325.061 406.852 324.628 408.64 325.929M413.46 134.477L409.124 144.883C408.546 146.184 407.563 149.652 408.257 153.121C408.951 156.59 409.413 158.324 409.558 158.757C414.871 170.753 419.86 206.191 397.313 251.978C368.336 310.823 323.375 331.036 299.862 322.218C296.393 320.917 289.456 316.581 286.535 310.823" stroke="white" stroke-width="2"/>
<path d="M316.772 181.707C319.837 179.872 322.727 179.351 324.929 180.53C330.219 183.363 329.544 194.93 323.42 206.366C317.296 217.801 308.043 224.775 302.753 221.943C300.29 220.623 299.12 217.41 299.192 213.197" stroke="white" stroke-width="1.73433"/>
<ellipse rx="11.2731" ry="20.8119" transform="matrix(-0.851269 -0.524729 -0.524729 0.851269 297.437 191.667)" stroke="white" stroke-width="1.73433"/>
<ellipse rx="14.4743" ry="22.9607" transform="matrix(-0.851244 -0.52477 -0.52477 0.851244 299.915 193.719)" stroke="white" stroke-width="1.73433"/>
<path d="M345.897 214.764C341.377 212.559 340.862 204.317 344.746 196.353C348.63 188.39 355.443 183.722 359.962 185.926M345.897 214.764C350.417 216.968 357.229 212.3 361.113 204.336C364.997 196.373 364.482 188.13 359.962 185.926M345.897 214.764C345.897 214.764 346.265 215.206 350.784 217.41C355.304 219.615 362.117 214.946 366.001 206.983C369.885 199.019 368.602 191.085 366.001 189.35C363.399 187.616 359.962 185.926 359.962 185.926" stroke="white" stroke-width="1.73433"/>
<path d="M319.257 257.323C314.737 255.118 314.221 246.876 318.105 238.912C321.989 230.949 328.802 226.281 333.322 228.485M319.257 257.323C323.776 259.527 330.589 254.859 334.473 246.895C338.357 238.932 337.841 230.689 333.322 228.485M319.257 257.323C319.257 257.323 319.624 257.765 324.144 259.969C328.663 262.174 335.476 257.505 339.36 249.542C343.244 241.578 341.962 233.644 339.36 231.909C336.759 230.175 333.322 228.485 333.322 228.485" stroke="white" stroke-width="1.73433"/>
<path d="M291.671 252.768C288.862 259.459 289.235 266.385 292.504 268.237C295.773 270.089 300.7 266.166 303.509 259.475C306.318 252.784 305.946 245.859 302.677 244.007C299.408 242.154 294.48 246.077 291.671 252.768Z" stroke="white" stroke-width="1.73433"/>
<path d="M297.187 283.841C293.91 291.686 294.345 299.806 298.159 301.977C301.973 304.149 307.721 299.55 310.999 291.705C314.276 283.861 313.841 275.741 310.027 273.569C306.213 271.398 300.465 275.997 297.187 283.841Z" stroke="white" stroke-width="1.73433"/>
<path d="M322.753 234.148C322.276 236.228 321.61 241.788 322.753 247.382M328.016 234.825C325.836 236.328 320.753 240.795 317.865 246.63" stroke="white" stroke-width="1.30075" stroke-linecap="round" stroke-linejoin="round"/>
<path d="M349.29 191.663C348.793 192.552 347.862 195.153 348.113 198.447M348.113 198.447C350.466 195.585 353.368 193.193 355.721 191.663M348.113 198.447C347.839 199.009 347.188 200.902 346.78 203.977" stroke="white" stroke-width="1.30075" stroke-linecap="round"/>
<path d="M299.595 285.345C297.41 290.19 297.7 295.205 300.242 296.546C302.785 297.888 306.617 295.047 308.802 290.202C308.971 289.826 309.126 289.45 309.266 289.074C310.929 284.602 310.5 280.238 308.155 279C305.612 277.659 301.78 280.5 299.595 285.345ZM299.595 285.345C300.599 283.696 302.635 282.504 304.089 283.494C307.003 285.476 305.497 288.216 306.288 290.474C306.597 291.356 307.463 291.957 307.463 291.957" stroke="white" stroke-width="1.30075"/>
<path d="M301.912 288.234C302.091 287.836 302.067 287.425 301.859 287.315C301.65 287.205 301.336 287.438 301.156 287.835C301.143 287.866 301.13 287.897 301.118 287.928C300.982 288.295 301.017 288.653 301.21 288.754C301.418 288.864 301.733 288.631 301.912 288.234Z" stroke="white" stroke-width="0.867164"/>
<path d="M302.371 256.209C302.524 254.69 302.237 253.708 301.349 253.265C301.328 253.255 301.305 253.249 301.281 253.248L295.249 253.018C295.233 253.018 295.216 253.019 295.201 253.023C293.925 253.349 293.14 254.527 292.716 255.689C292.215 257.061 292.472 258.534 293.421 258.871C293.435 258.876 293.451 258.879 293.466 258.879L300.023 259.226C300.839 259.226 302.215 257.746 302.371 256.209Z" stroke="white" stroke-width="1.30075" stroke-linecap="round"/>
</svg>
