<svg width="521" height="462" viewBox="0 0 521 462" fill="none" xmlns="http://www.w3.org/2000/svg">
<path d="M192.541 179.174C208.35 184.056 215.191 191.852 216.742 195.324C216.767 195.38 216.829 195.404 216.886 195.385C262.171 180.264 315.733 181.606 327.752 181.814C344.763 182.107 359.721 183.867 362.361 187.386C364.469 190.197 375.131 197.333 380.225 200.568C380.244 200.579 380.264 200.585 380.285 200.585L389.05 200.721L414.725 201.483C429.207 202.081 460.456 203.53 473.227 204.691C486.132 205.864 495.615 210.459 498.744 212.61C504.023 215.641 515.168 226.864 517.515 247.512C520.448 273.323 521.621 337.262 499.037 361.313C476.453 385.363 430.405 402.668 415.446 408.241L414.819 408.474C400.249 413.904 391.833 417.04 377.904 417.04C355.948 417.04 253.347 394.249 252.96 394.163C252.949 394.16 252.954 394.163 252.943 394.163C244.403 394.554 227.75 391.8 220.404 390.35C159.244 375.599 137.8 333.269 139.969 292.384C139.972 292.327 139.934 292.276 139.878 292.263L136.549 291.514C136.53 291.51 136.511 291.51 136.492 291.515C100.139 301.186 75.7988 300.247 72.2879 300.013C67.8884 299.72 52.6371 298.84 43.2515 290.041C35.8403 283.093 34.2965 270.24 34.4458 264.455C32.2856 263.886 30.5572 263.405 29.4662 263.058C23.0136 261.005 17.1473 257.778 15.0942 256.018C13.8101 254.918 13.3985 253.626 13.3267 252.787C4.65187 247.383 3.65564 226.881 4.24221 217.303C5.12211 194.719 14.5077 182.987 25.9462 182.987H36.556C36.6066 182.987 36.6521 182.953 36.6681 182.905C40.4806 171.477 46.5759 170.006 52.1878 168.653L52.3435 168.615C58.7961 167.463 74.1064 165.154 106.017 166.562C145.906 168.322 172.596 173.015 192.541 179.174Z" fill="#414042"/>
<path d="M397.714 203.518L390.576 202.936C390.54 202.933 390.508 202.915 390.488 202.884C361.856 158.508 292.511 74.4621 209.336 54.2709C174.922 48.6004 105.255 63.0269 102.205 166.268V166.622L79.9141 166.268V165.975C83.6683 67.8958 138.281 46.0156 172.89 46.0156C177.331 46.0156 181.702 46.2105 186.088 46.595C284.531 47.5326 379.657 150.794 415.042 202.471C415.093 202.547 415.038 202.644 414.947 202.648L397.714 203.518Z" fill="#414042"/>
<path d="M321.302 346.942C321.986 348.017 327.52 349.757 344.179 348.115C360.839 346.472 418.188 330.615 444.781 322.891C460.619 318.198 496.284 307.17 512.24 300.6C513.902 299.916 517.461 298.254 518.399 297.081" stroke="white" stroke-width="2" stroke-linecap="round"/>
<path d="M216.886 195.599C215.42 192.177 208.498 184.101 192.542 179.174C172.598 173.015 145.908 168.322 106.019 166.562C74.1079 165.154 58.7977 167.463 52.3451 168.615C43.8394 170.668 34.1605 172.78 32.9873 209.384V210.85" stroke="white" stroke-width="2" stroke-linecap="round"/>
<path d="M34.4548 264.231C34.2592 269.901 35.7453 283.002 43.2538 290.041C52.6393 298.84 67.8907 299.72 72.2902 300.014C75.802 300.248 100.154 301.187 136.523 291.508" stroke="white" stroke-width="2" stroke-linecap="round"/>
<path d="M259.415 233.727L146.204 221.996L146.2 221.995C146.139 221.992 143.537 221.856 141.508 222.289C123.617 226.102 117.555 241.94 117.164 249.272C115.757 276.96 129.874 288.965 137.109 291.507L237.711 314.385C241.699 315.089 244.848 315.46 245.923 315.558C258.535 315.265 275.253 308.812 280.532 278.602C285.812 248.392 271.733 238.713 268.507 236.66C265.926 235.018 261.37 234.021 259.415 233.727Z" stroke="white" stroke-width="2" stroke-linecap="round"/>
<path d="M390.521 202.931L397.716 203.517L414.949 202.648C415.04 202.643 415.096 202.546 415.044 202.471C379.659 150.794 284.534 47.5396 186.091 46.6021" stroke="white" stroke-width="2" stroke-linecap="round"/>
<path d="M181.984 301.773C180.577 365.358 228.711 390.054 252.958 394.162C252.96 394.162 252.959 394.162 252.961 394.162C253.024 394.176 355.916 417.04 377.907 417.04C392.034 417.04 400.491 413.813 415.449 408.241C430.407 402.668 476.455 385.363 499.039 361.313C521.623 337.262 520.45 273.323 517.517 247.512C515.171 226.864 504.025 215.64 498.746 212.61C495.618 210.459 486.134 205.864 473.229 204.691C460.458 203.53 429.21 202.081 414.728 201.483M389.052 200.72C329.288 199.669 287.961 204.127 273.492 207.917C259.709 210.214 239.502 216.943 221.578 229.751" stroke="white" stroke-width="2" stroke-linecap="round"/>
<path d="M461.792 203.811C450.353 204.007 421.316 205.219 396.679 208.504C365.883 212.61 313.675 234.314 321.301 347.528C321.595 367.863 329.514 410.294 360.604 415.28" stroke="white" stroke-width="2" stroke-linecap="round"/>
<path d="M471.04 216.423L439.083 218.475C439.075 218.476 439.067 218.477 439.06 218.479C437.983 218.781 436.141 220.548 437.018 226.102C437.67 230.235 439.265 232.332 440.461 233.223C441.038 233.652 441.784 233.691 442.5 233.618L473.387 230.501C474.56 230.306 476.578 227.862 475.733 222.582C474.982 217.889 472.214 216.423 471.04 216.423Z" stroke="white" stroke-width="2" stroke-linecap="round"/>
<path d="M380.254 200.585C375.17 197.358 364.475 190.202 362.363 187.386C359.723 183.866 344.765 182.107 327.754 181.813C310.742 181.52 209.847 179.174 168.199 224.049M253.256 394.162C244.809 394.632 227.836 391.816 220.406 390.35C159.197 375.587 137.768 333.2 139.976 292.285" stroke="white" stroke-width="2" stroke-linecap="round"/>
<path d="M397.266 202.931C363.537 151.017 274.96 46.0156 172.892 46.0156C138.283 46.0156 83.6703 67.8958 79.916 165.975" stroke="white" stroke-width="2" stroke-linecap="round"/>
<path d="M390.52 202.931C357.85 152.278 272.057 49.8286 173.196 49.8286C139.674 49.8286 86.7779 70.2791 83.1416 165.975" stroke="white" stroke-width="2" stroke-linecap="round"/>
<path d="M209.26 54.2276C174.847 48.5572 105.256 63.0266 102.206 166.268" stroke="white" stroke-width="2" stroke-linecap="round"/>
<path d="M135.056 224.635C106.606 221.116 46.5968 213.49 34.1609 211.144C18.616 208.211 19.7895 206.157 20.0825 205.571C20.6229 204.489 23.3091 202.931 33.2813 202.345M33.2813 200.585C20.9627 200.291 13.3369 202.638 13.3369 206.157C13.3369 209.677 28.8797 212.33 30.6416 212.61C43.5468 214.663 112.766 224.049 131.243 226.395" stroke="white" stroke-width="2" stroke-linecap="round"/>
<path d="M13.3362 206.157V252.197C13.3362 252.203 13.3359 252.208 13.3351 252.213C13.2401 252.903 13.4599 254.616 15.096 256.018C17.1491 257.778 23.0153 261.004 29.4679 263.057C35.9205 265.11 64.6639 271.856 73.1696 273.616C81.6753 275.376 119.804 282.708 126.55 283.588" stroke="white" stroke-width="2" stroke-linecap="round"/>
<path d="M36.5069 182.987H25.9481M25.9481 182.987C20.3756 183.28 8.35015 190.554 7.17695 217.303C6.68812 224.342 7.23561 240.415 13.3362 248.393M25.9481 182.987C14.5097 182.987 5.12406 194.719 4.24416 217.303C3.65742 226.884 4.65441 247.395 13.3362 252.792" stroke="white" stroke-width="2" stroke-linecap="round"/>
<ellipse cx="305.562" cy="289.007" rx="8.32555" ry="10.8521" transform="rotate(11.4544 305.562 289.007)" stroke="white" stroke-width="2" stroke-linecap="round"/>
<ellipse cx="306.156" cy="362.001" rx="7.1963" ry="10.7666" transform="rotate(-30 306.156 362.001)" stroke="white" stroke-width="2" stroke-linecap="round"/>
<path d="M295.215 316.45C295.177 311.753 298.763 308.134 303.225 308.368C307.686 308.602 311.335 312.6 311.373 317.297L311.532 336.654C311.571 341.352 307.985 344.97 303.523 344.736C299.061 344.502 295.413 340.505 295.374 335.807L295.215 316.45Z" stroke="white" stroke-width="2" stroke-linecap="round"/>
<path d="M309.839 289.746C310.06 288.535 309.398 287.573 308.785 287.268C308.773 287.262 308.759 287.258 308.745 287.257L301.306 286.596C301.29 286.594 301.273 286.596 301.257 286.602C300.669 286.822 300.286 287.517 300.164 288.273C300.043 289.028 300.372 290.116 300.931 290.506C300.946 290.516 300.963 290.522 300.981 290.524L308.356 291.42C308.908 291.42 309.679 290.625 309.839 289.746Z" stroke="white" stroke-width="2" stroke-linecap="round"/>
</svg>
