<svg xmlns="http://www.w3.org/2000/svg" width="1024" height="1154" viewBox="0 0 1024 1154">
  <defs>
    <style>
      .cls-1 {
        fill: #fff;
        fill-rule: evenodd;
      }
    </style>
  </defs>
  <path id="Color_Fill_1" data-name="Color Fill 1" class="cls-1" d="M431,41l25,6c37.14,21.2,54.624,97.224,73,140l31,66c23.02,58.738,32.6,125.057,63,177,29.243,49.972,65.317,88.228,103,129l31-7c15.33-10.615,26.255-68.532,33-91,18.385-61.242,35.714-114.893,81-149,14.323-10.787,36.717-31.9,64-25,54.088,13.69-1.476,66.734-10,91l-7,51c-9.333,46.941-16.96,94.8-25,146-4.36,27.761,8.327,58.221,2,87q-11,28.5-22,57L849,846l-13,38c-6.476,34.211,12.055,62.333,20,85,15.577,44.44,28.451,81.21,43,129q9,27.99,18,56h-3c-0.667-.33-1.333-0.67-2-1q-8-24.495-16-49l-6-30c-10.909-36.55-26.438-68.83-39-106-8.117-24.014-18.163-43.333-20-76-1.15-20.462,10.864-36.2,15-54q11-58.993,22-118l23-62c5.911-30.974-7.445-60.392-2-93,7.312-43.793,14.332-87.548,23-128q3-25,6-50c6.931-29.6,35.872-45.679,37-77-19.389-40.127-72.068-4.644-91,12-53.138,46.717-58.377,129.919-88,201-7.071,16.968-21.4,51.619-52,39-26.779-12.381-47.084-46.923-64-70-18.981-25.894-39.525-52.725-53-84-21.391-49.648-30.71-101.674-51-153q-17.5-38-35-76c-14.779-40.44-27.942-79.118-51-111-6.639-9.18-21.057-26.8-40-22-42.963,10.877-32.716,61.148-19,96l37,103q9,38.5,18,77c12.466,23.632,41,87.673,36,120l-19,12-3-2-34-60-43-96L303,146c-19.173-27.521-55.431-91.16-104-56-40.095,29.025,8.009,83.918,24,110l48,68q17.5,38.5,35,77c12.172,27.67,29.612,51.4,44,79,11.506,22.068,41.483,56.972,43,85-3.13,7.035-7.509,20.161-14,24l-5,1c-29.262-35.712-54.954-75.882-84-112-16.412-20.408-40.4-36.678-61-53l-73-88c-18.008-23.3-63.463-77.334-99-30-30.377,40.462,32.5,91.154,50,113,51.636,64.469,109.716,125.455,161,190,18.847,23.721,53.87,41.39,47,84l-2,1c-22.712-11.671-33.117-36.416-50-54-16.613-17.3-38.041-28.975-57-44l-59-71c-12.82-14.084-42.83-53.39-71-34-19.224,13.232-14.232,46.125-4,65,25.516,47.071,66.563,81.511,99,122,28.918,36.1,65.909,65.009,93,103,45.276,63.493,80.841,131.832,135,186,51.5,51.505,119.6,91.96,161,153,12.7,18.72,17.155,62.91,19,89h-4v-2c-11.15-24.46-4.027-61.44-18-83-43.6-67.27-122.129-101.329-171-163L303,798l-44-71c-28.167-38.344-65.423-68.138-95-105-32.455-40.45-75.31-75.464-99-124-9.32-19.1-10.1-51.833,6-64,25.611-19.355,59.28,6.87,73,24l68,82,46,33c20.7,16.631,31.129,44.119,53,60h1c0.536-40.333-31.9-56.181-50-79-12.007-15.137-27.218-27.142-39-42-41.278-52.054-82.075-104.609-127-153-19.372-20.867-76.857-76.82-40-114,40.618-40.974,80.4,2.716,101,30l72,88c23.527,18.921,50.161,37.516,69,61,27.231,33.945,51.914,71.481,78,106l3-2,10-21c-18.881-51.324-51.4-97.1-78-142l-43-93-54-78c-19.526-31.759-62.234-81.811-11-112,50.279-29.626,85.165,35.242,104,62q24,37.5,48,75c21.513,30.543,47.113,60.017,63,96,17.138,38.817,37.708,106.218,66,133l2-2,12-7c-0.138-37.339-21.751-87.094-36-114l-17-74-29-82c-9.721-26.625-36.155-78.95-16-110C406.929,48.325,419.983,47.711,431,41Zm66,139h4l-2,1c-11.251,7.134-27.1,12.274-43,14l2-1C469.311,187.133,484.552,186.611,497,180Zm-43,15h0ZM318,214h3v1l-47,23C285.776,225.969,303.857,224.016,318,214Zm227,79h3v1c-15.554,5.086-42.257,19.039-64,13C502.457,299.623,529.563,303.594,545,293ZM395,334c-1.275,8.669-41.347,34.692-57,28C357.69,359.028,384.371,347.074,395,334ZM188,354h2c-7.705,10.224-22.9,21.626-35,27C164.016,369.159,177.673,364.317,188,354Zm630,93c19.829,1.508,34.907,7.449,51,12v1C852.769,458.059,829.561,455.081,818,447Zm-536,1c1.177,17.047-23.283,35.339-39,40C256.514,473.692,271.983,466.479,282,448Zm-41,40h0Zm-67,48c-0.9,9.1-19.089,23.26-29,27Zm404,39c-0.322,2.056.337,1.7-2,4Q577,577,578,575Zm-3,4c-1.135,11.018-18.9,27.911-26,38-20.154,28.623-43.412,62.664-50,103h-1C503.5,658.57,546.547,619.188,575,579ZM240,593c0.374,12.376-21.645,35.009-33,40Zm243,13,1,2Zm-1,2v5h-1Q481.5,610.5,482,608Zm-2,5c2.151,10.181-12.919,29.587-18,38-19.924,32.989-54.767,83.635-84,106l4-5,23-28C430.733,691,465.7,655.535,480,613Zm71,96c10.88,25.567,10.758,62.958,21,89,9.3,23.636,20.1,47.4,33,68l20,30C586.775,862.615,553.048,778.484,551,709Zm74,187,2,3Z"/>
</svg>
