<?xml version="1.0" encoding="utf-8"?>
<!-- Generator: Adobe Illustrator 22.1.0, SVG Export Plug-In . SVG Version: 6.00 Build 0)  -->
<svg version="1.1" id="Layer_1" xmlns="http://www.w3.org/2000/svg" xmlns:xlink="http://www.w3.org/1999/xlink" x="0px" y="0px"
	 viewBox="0 0 800 800" style="enable-background:new 0 0 800 800;" xml:space="preserve">
<style type="text/css">
	.st0{display:none;}
	.st1{fill:#FFFFFF;}
</style>
<g id="Layer_1_1_" class="st0">
</g>
<g id="Layer_2_1_">
	<path class="st1" d="M790.5,398.6l-7.7-55.1l0,0l0,0l-10.7-77c-0.7-5.3-3.6-7.1-5.3-7.8c-0.3-5.5-2.5-10.5-6.8-14.6
		c-16.8-16.3-58.9-16.9-67.4-16.8c0.1-1.8,0-3.7-0.1-5.8c-0.1-1.9-0.2-4-0.2-6.4l0,0c0-0.3-0.1-0.6-0.1-0.9c-1-4.8-6.6-6.6-9.3-7.4
		c1.2-8.4,1.7-14.5,0.2-17.3l-34.3-62.8c0-0.1,0-0.2-0.1-0.4c-0.3-1.5-1.3-2.7-2.9-3.6c-26.3-15-258.5,62.2-279.8,69.4l-2.6-5.7
		l-1.2,0.4c-73.2,25.5-152.9,58.9-218.5,91.8C72.8,313.9,25.3,345.1,9.8,366.4c-1.2,1.7-1.4,3.9-0.4,5.8l35.9,69.1
		c1,1.9,2.9,2.9,4.8,2.9c0.8,0,1.7-0.2,2.4-0.6l5.1-2.6c0.2,0,0.3,0,0.5,0c94.9,0,159.9-10.1,317.2-72.7
		c46-18.3,83.1-25.9,111.6-28.2c-23.2,15.6-69.9,27-107.9,36.2c-26.1,6.3-46.7,11.4-53.3,16.2l-27,16.7c-1,0.5-1.9,1.2-2.6,2.1
		c-4.1,4.9-4,15.3-1.9,23.5c-16.6,6.8-21.5,11.3-16.5,33.6l25.7,112.9c3.5,15.6,13.9,28.7,28.3,35.9c2.4,1.2,4.8,2.3,7.2,3.4
		c-0.2,4,0.1,18.3,12.2,32c15.7,17.7,44.3,26.6,84.8,26.6c53.3,0,83.7-16.8,99.7-30.9c15.7-13.8,21.2-27.5,22.3-30.6
		c26.1-12.2,49.5-27.3,69.7-42.7l90.3-69.9l6-0.7c18.7-3.1,25.4-21.1,26.4-24.3l14.6-11.3c4.3-3.4,8.3-7.3,11.7-11.6
		c10.3-13,12.5-23.5,12.6-36C792.3,415.5,791.8,408.3,790.5,398.6z M787.7,399c1.9,14.9,1.2,21.2-6.8,26.6
		c-12.3,9.2-19.8,21.6-25.9,31.5c-3.8,6.3-7.1,11.7-10.4,14l-0.5,0.4c-6.1-12-7.3-17.8-9.7-44.4c-2.8-31.6-2.6-44.1,19.6-76.3
		c10.2-13.4,17.2-19.7,20.9-18.8c2.3,0.6,4,4.6,5,11.9l0,0L787.7,399z M778.1,330.6c-0.7-0.6-1.5-1.1-2.4-1.3
		c-5.2-1.4-12.3,4.6-24,19.9c-22.8,33.1-23,45.9-20.1,78.3c2.4,27.4,3.6,33.1,10.2,45.9l-120.5,91.4c-1.5-13.5-8.7-74.6-14.1-82.3
		l-0.1-0.2c-5.9-8.5-13.3-19.2-58.9,4.8s-55.2,34.2-54.1,57.3c1.1,21.9,11.1,61.5,18.9,75.7c-19.5,6.4-74.9,14.4-130-3.7
		c-15.8-5.2-34.4-12.7-47.3-18.1c-11.7-4.9-20.4-15.2-23.3-27.6l-3.6-15.7l0,0L295,495.5c-0.9-4,1.1-7.2,3-9.2
		c3.7-3.9,9.4-5.9,12.4-5.4c9.1,1.6,21.9,2.6,37,2.6c49.7,0,124.1-10,170-37.7c63.7-38.4,222.8-137.9,224.4-138.9
		c11.9-7.6,23.7-22.6,27.9-34.2L778.1,330.6z M515.9,619.1c-7.5-13.2-17.7-53.5-18.8-74.9c-1.1-21.6,8.2-31.3,52.5-54.6
		c43.3-22.8,49.6-13.7,55.1-5.7l0.2,0.2c4.5,6.5,11.4,61.1,13.8,82.7l-3.2,2.4c-2.7,2-5.6,3.7-8.8,5l-14.3,3.3
		c-1.4,0.3-2.8,0.8-4,1.3c-13.4,5.4-26.4,12.2-38.5,20l-30.2,18.5C518.9,617.8,517.6,618.4,515.9,619.1z M768.8,264.9
		c-0.4,10.8-14.5,30.5-28.2,39.4c-1.6,1-160.7,100.4-224.4,138.9C456.9,479,349.7,485,311.2,478c-4.4-0.8-11,2-15.1,6.2
		c-1.1,1.2-2,2.4-2.6,3.7l-0.6-2.6c-1-4.5-0.3-8.5,2.2-11.2s6.3-3.9,10.9-3.4c14,1.7,51.5,5.3,95.9,0.6
		c45.3-4.7,82.9-16.2,111.7-34.2l226.8-143.3c13.3-8.8,18.1-17.8,25.2-31.4l0.5-0.9C766.9,262,768.1,262.9,768.8,264.9z M678,243.3
		c0.2-3.3,0.5-6.6,0.9-9.9c5-4,8.5-7.6,10.7-10.8C690,230.3,689.7,233.8,678,243.3z M684.7,244.3c0.3,7.1,0.3,8-6.9,13.3
		c-0.2-3.4-0.2-6.9,0-10.5c2.7-2.1,5-4,6.8-5.7C684.6,242.5,684.6,243.5,684.7,244.3z M715.4,285.3c-0.6-4.9-2.4-13.5-8.1-19.1
		c0.8,0.5,1.5,1,2.2,1.5c4.6,3.4,7.1,8,7.1,12.9v0.3C716.6,280.9,717,282.7,715.4,285.3z M712.8,288.2L569,380.8
		c-0.2-0.8-0.4-1.8-0.7-3l144.4-91.2C712.7,287.3,712.8,287.8,712.8,288.2z M712.3,283.4L567.4,375c-0.3-0.8-0.6-1.7-0.9-2.6
		l145.2-91.7C711.9,281.6,712.1,282.5,712.3,283.4z M566.3,382.7c-1.7,1.3-7.7,4.9-20.7,3.4c-6-0.7-10.6-1.9-13.8-3.6
		c-2-1.1-3.3-3.1-3.5-5.4c-0.4-4.3-0.5-12.3,3.9-17.1c2.5-2.7,6.2-4.1,10.9-4.1C561,355.7,565.6,378.2,566.3,382.7z M693,263.4
		c10.7,0,15.6,7.4,17.9,14.3l-145.5,91.9c-3.6-8.1-10.2-16.8-22.2-16.8c-0.1,0-0.3,0-0.4,0l11.4-7c2.9,0.8,5.9,0.6,8.6-0.6l40-17.8
		c20.7-9.2,39.6-21.6,56.3-36.8l15-13.6c1.8-1.6,3-3.6,3.8-5.8c0.8-0.6,1.6-1.2,2.3-1.9C684,266.2,687.3,263.4,693,263.4z
		 M689.2,214.8c0.5,2.4-1,6.8-9.8,14.4c0.7-5,1.4-9.9,2.1-14.4c0.3-1.8,0.5-3.5,0.8-5.2C684.8,210.4,688.6,211.8,689.2,214.8z
		 M644.3,125.2c0.2,0.1,0.3,0.2,0.4,0.3l1.2,2.2c2.8,21.3-65.6,65.4-183.7,118.2c-89.3,39.9-193.8,78.9-279.6,104.4
		c-89.9,26.7-148.3,35-161.4,23.3l16.2-6.5c6.1,6.5,26.1,6.4,61-0.5c32-6.3,75.6-18.2,126.2-34.4c90.5-29.1,191.2-68,269.3-104
		c12.7-5.9,25.9-12.2,38.9-18.7c0.7-0.2,1.1-0.2,1.2-0.2l-0.1-0.3c51.3-25.8,98.8-54.8,98.4-73.6c0-1.5-0.8-2.9-2.1-3.8
		c-9.4-6.6-57.9,2.8-144.3,27.9C432.3,175,380.1,192,364.1,197.3l1.9-2.2C453.5,165.7,623.7,113.4,644.3,125.2z M362.2,190.9
		l1.3,2.7l-3.9,4.5l-1.3-2.3L362.2,190.9z M531.8,206.7c-12.4,2.7-97.5,21.4-144.7,41.9l-25.4-47.4c70-23.3,249.7-79.4,266.9-67.3
		c0.8,0.5,0.9,1.1,0.9,1.5c0.1,6.1-6.3,17.6-38,38C575.8,183.5,555.8,194.6,531.8,206.7z M391.3,249.9l2.2,3.9l-1.7,3.5l-3.4-6.2
		C389.4,250.7,390.3,250.3,391.3,249.9z M393,261.4l3.8-7.7l-2.8-4.9c39.7-16.1,100.5-30.7,126.9-36.7c-8.9,4.4-18.4,8.8-28.3,13.4
		c-36.4,16.8-77.8,34.2-120.7,51L393,261.4z M355.9,197.4l29.3,53.8l0.6,1.1l0,0l4.2,7.7l-29,20.7c-45.6,17.6-92.7,34.3-137.4,48.7
		C143.9,355,84,368.9,55.9,368.9c-2.4,0-4.6-0.1-6.5-0.3l-5.9-10.5c-0.2-0.4-0.5-0.8-0.9-1.1C88.8,301.1,336.5,204.9,355.9,197.4z
		 M358.3,191.1l-2.6,3.3c-5.4,2.1-70.8,27.2-140.5,58.7C118,297,58.9,331.7,39.5,356.2c-0.3,0-0.5,0.1-0.8,0.2l-25.3,10
		C49,321.2,218.1,240.4,358.3,191.1z M51.3,441.1c-1.2,0.6-2.8,0.1-3.4-1.1L12,370.9c-0.1-0.2-0.2-0.4-0.2-0.7l28-11.1
		c0.4-0.2,1,0,1.2,0.4l4.8,8.5c-3.3-0.7-5.6-1.9-6.7-3.6l-1.7-0.5l-19.1,7.6l-0.5,1.8l-0.3,0.1c0.1,0.2,7.7,16.9,16.3,33.4
		c11.3,21.7,17.4,29.6,20.8,32.5L51.3,441.1z M374.3,365.7c-156.8,62.4-221.6,72.5-316.1,72.5c-4.9,0-21.5-29.8-35.6-60.3
		c5.1,2.6,12.8,3.8,22.3,3.8c33.6,0,90.1-14.3,138.6-28.6c85.9-25.5,190.6-64.5,280-104.5c56.1-25.1,102.6-49,134.5-69.1
		c30.8-19.4,47.7-35.2,50.6-47l32,58.5c1.5,2.8-0.1,12.8-1.7,23.5c-2.4,15.5-5.4,34.8-3.1,50.7c0.5,3.6-0.8,7.2-3.5,9.7l-15,13.6
		c-16.5,15-35.2,27.2-55.6,36.3l-40,17.8c-2.3,1-4.8,1.1-7.2,0.4C538.7,337.7,479.3,323.9,374.3,365.7z M538.4,342
		c-52.3,38.5-113.6,76.8-228.4,90.2c0.8-7.8,7.7-12.2,21-13.5c41.6-4,85.7-20.8,115.4-34.2c35-15.8,64.9-33.5,79.3-44.3
		C530.4,340.7,534.7,341.3,538.4,342z M327.3,395L327.3,395c6.2-4.6,27.6-9.8,52.4-15.8c40.4-9.8,90.5-22,112.7-39.4
		c2.2-0.1,4.4-0.2,6.5-0.3C424.5,387.8,330,409,305.2,408.6L327.3,395z M298.3,413.2c0.3-0.3,0.5-0.6,0.8-0.8l1-0.6
		c0.8-0.3,1.6-0.5,2.6-0.4c0.9,0.1,1.8,0.1,3,0.1c26.5,0,123.8-22.1,198.6-72v-0.1c6.2-0.1,11.9,0.1,17,0.5
		C488,363.7,400.5,409,330.7,415.8c-15.1,1.5-23,7.1-23.6,16.8l-10.1,1.6C294.7,425.7,295.2,416.9,298.3,413.2z M533.5,646.4
		c-15.7,13.7-45.4,30.1-97.7,30.1c-39.7,0-67.5-8.6-82.6-25.6c-10.4-11.6-11.5-24-11.5-28.8c6,2.7,11.9,5.1,17.9,7.3l1.3,6.3
		c1.7,8,7.9,14.5,15.9,16.4c12.6,3.1,33.7,7.1,57.3,7.1c28.7,0,61.2-6,86.6-26.9c11.5-3.6,22.6-8,33.2-12.8
		C551.6,624.8,545.8,635.6,533.5,646.4z M362.7,630.5c28,9.9,55.1,14.1,81,14.1c24.2,0,47.3-3.7,69.1-9.9
		c-45.2,31.7-109.1,21-135.4,14.6c-6.9-1.7-12.3-7.3-13.8-14.2L362.7,630.5z M723.3,501.7l-1.1,0.1l23.3-18
		C742.5,489.8,735.8,499.6,723.3,501.7z M774.2,455.5c-3.3,4.1-7,7.9-11.2,11.1L625.7,572.8c-67.9,51.8-173.9,101.1-292.8,41.8
		c-13.7-6.8-23.4-19.2-26.8-33.9l-25.7-112.9c-4.9-21.4-0.7-24.1,15.8-30.7l12.3-1.9c118.2-13.5,180.3-53.1,233.7-92.6
		c3.2,0.7,6,1.4,8.2,2L533,355.4l0,0c-1.1,0.7-2.1,1.5-2.9,2.5c-5.1,5.7-5.1,14.6-4.6,19.4c0.3,3.3,2.2,6.1,5,7.7
		c3.5,1.9,8.5,3.2,14.8,4c2.3,0.3,4.4,0.4,6.3,0.4c11.4,0,16.3-4.1,17.2-4.9l146.9-94.6v-0.2c4.2-4.5,4-8.2,3.8-9.2
		c0-5.8-3-11.1-8.2-15.1c-6.3-4.7-14.6-6.5-21.6-4.5c-4.7,0.8-7.8,3.3-11.1,6c0-0.7,0-1.4-0.1-2.1c-0.2-1.2-0.3-2.4-0.4-3.6
		c9.6-7,9.9-8.4,9.5-16.9c-0.1-1.6-0.1-3.5-0.1-5.7c2.8-3.1,4.2-5.7,4.8-8.4c7,0,49.7,0.4,65.8,16c3.9,3.8,5.9,8.3,6,13.3l-0.9,1.6
		c-6.9,13.2-11.5,22-24.2,30.3L512.1,434.7c-57.6,36.1-146.8,40.4-205.7,33.2c-5.6-0.7-10.3,0.8-13.5,4.3c-3.1,3.4-4.1,8.3-2.9,13.8
		l19.7,85.3c3.1,13.3,12.4,24.4,25,29.6c12.9,5.4,31.6,12.9,47.5,18.2c25.8,8.5,51.4,11.4,73.4,11.4c34.3,0,60.1-7,65.5-10.8
		l30.1-18.5c12-7.7,24.8-14.4,38.1-19.8c1.1-0.5,2.4-0.8,3.6-1.1l14.4-3.4l0.2-0.1c3.4-1.3,6.6-3.2,9.5-5.4l129.1-98
		c3.7-2.7,7-8.1,11.1-14.9c5.9-9.7,13.3-21.8,25.1-30.6c1.3-0.9,2.4-1.8,3.4-2.8C785.5,435.7,782.9,444.5,774.2,455.5z"/>
</g>
</svg>
