<?xml version="1.0" encoding="UTF-8" standalone="no"?>
<!DOCTYPE svg PUBLIC "-//W3C//DTD SVG 1.1//EN" "http://www.w3.org/Graphics/SVG/1.1/DTD/svg11.dtd">
<!-- Generated by Microsoft Visio, SVG Export hp_motion_controller.svg Page-1 -->
<svg xmlns="http://www.w3.org/2000/svg" xmlns:xlink="http://www.w3.org/1999/xlink" xmlns:ev="http://www.w3.org/2001/xml-events"
		width="5.68837in" height="6.3616in" viewBox="0 0 409.563 458.035" xml:space="preserve" color-interpolation-filters="sRGB"
		class="st2">
	<style type="text/css">
	<![CDATA[
		.st1 {fill:none;stroke:none;stroke-linecap:round;stroke-linejoin:round;stroke-width:0.75}
		.st2 {fill:none;fill-rule:evenodd;font-size:12px;overflow:visible;stroke-linecap:square;stroke-miterlimit:3}
	]]>
	</style>

	<g>
		<title>Page-1</title>
		<g id="shape1-1" transform="translate(0.375,-0.375)">
			<title>Sheet.1</title>
			<rect x="0" y="0.749995" width="408.813" height="457.285" class="st1"/>
			<!-- Unsupported Record: EmfPlusRecordTypeSetPixelOffsetMode  -->
			<svg viewBox="-0.70833 -0.70968 3405.2 3816.2" clip="rect(0 0 0 0)" height="457.285" overflow="hidden"
					preserveAspectRatio="none" width="408.813" x="0" y="0.749995">
				<mask id="mfid1">
					<rect width="3405" height="3816" fill="white" stroke="none"/>
				</mask>
				<mask id="mfid2" fill="white" stroke="none">
					<g>
						<g mask="url(#mfid1)">
							<rect x="-0.70833" y="-0.70968" width="3405.2" height="3816.2" id="mfid3"/>
						</g>
					</g>
				</mask>
				<defs>
					<path id="mfid4"
							d="M0,1218300 C-0.000000003498,545450 545450,-0.000000003498 1218300,-0.000000003498 L1529200,0 C2202100,-0.000000003498 2747500,545450 2747500,1218300 L2747500,1218300 C2747500,1891100 2202100,2436600 1529200,2436600 L1218300,2436600 C545450,2436600 -0.000000001749,1891100 -0.000000001749,1218300 Z"/>
				</defs>
				<g mask="url(#mfid2)">
					<g transform="matrix(0.00060962, -0.00024273, 0.00024273, 0.00060962, 798.63, 1639)">
						<g stroke-width="38100" stroke="#ffffff" stroke-miterlimit="8">
							<use xlink:href="#mfid4" fill="none"/>
							<defs>
								<path id="mfid5"
										d="M0,233170 C-0.00000000029686,104390 104390,-0.00000000029686 233170,-0.00000000059372 C361950,-0.0000000011874 466340,104390 466340,233170 C466340,361950 361950,466340 233170,466340 C104390,466340 -0.0000000014843,361950 0,233170 Z"/>
							</defs>
						</g>
					</g>
					<g transform="matrix(0.00065617, 0, 0, 0.00065617, 2174.5, 1889.5)">
						<g stroke-width="38100" stroke="#ffffff" stroke-miterlimit="8">
							<use xlink:href="#mfid5" fill="none"/>
							<defs>
								<path id="mfid6"
										d="M0,233170 C-0.00000000029686,104390 104390,-0.00000000029686 233170,-0.00000000059372 C361950,-0.0000000011874 466340,104390 466340,233170 C466340,361950 361950,466340 233170,466340 C104390,466340 -0.0000000014843,361950 0,233170 Z"/>
							</defs>
						</g>
					</g>
					<g transform="matrix(0.00065617, 0, 0, 0.00065617, 1989.5, 2270.5)">
						<g stroke-width="38100" stroke="#ffffff" stroke-miterlimit="8">
							<use xlink:href="#mfid6" fill="none"/>
							<defs>
								<path id="mfid7"
										d="M0,152400 C-0.00000000019403,68232 68232,-0.00000000019403 152400,-0.00000000038805 C236570,-0.0000000007761 304800,68232 304800,152400 C304800,236570 236570,304800 152400,304800 C68232,304800 -0.00000000097013,236570 0,152400 Z"/>
							</defs>
						</g>
					</g>
					<g transform="matrix(0.00065617, 0, 0, 0.00065617, 1724.5, 2529.5)">
						<g stroke-width="38100" stroke="#ffffff" stroke-miterlimit="8">
							<use xlink:href="#mfid7" fill="none"/>
							<defs>
								<path id="mfid8"
										d="M0,152400 C-0.00000000019403,68232 68232,-0.00000000019403 152400,-0.00000000038805 C236570,-0.0000000007761 304800,68232 304800,152400 C304800,236570 236570,304800 152400,304800 C68232,304800 -0.00000000097013,236570 0,152400 Z"/>
							</defs>
						</g>
					</g>
					<g transform="matrix(0.00065617, 0, 0, 0.00065617, 1384.5, 2443.5)">
						<g stroke-width="38100" stroke="#ffffff" stroke-miterlimit="8">
							<use xlink:href="#mfid8" fill="none"/>
							<defs>
								<path id="mfid9"
										d="M0,459490 C-0.00000000058499,205720 205720,-0.00000000058499 459490,-0.00000000117 C713250,-0.0000000023399 918970,205720 918970,459490 C918970,713250 713250,918970 459490,918970 C205720,918970 -0.0000000029249,713250 0,459490 Z"/>
							</defs>
						</g>
					</g>
					<g transform="matrix(0.00065617, 0, 0, 0.00065617, 1384.5, 1658.5)">
						<g stroke-width="38100" stroke="#ffffff" stroke-miterlimit="8">
							<use xlink:href="#mfid9" fill="none"/>
							<defs>
								<path id="mfid10"
										d="M0,359660 C-0.00000000045887,161030 161370,-0.0000000004579 360430,-0.0000000009158 C559480,-0.0000000018316 720850,161030 720850,359660 C720850,558300 559480,719330 360430,719330 C161370,719330 -0.0000000022944,558300 0,359660 Z"/>
							</defs>
						</g>
					</g>
					<g transform="matrix(0.00065617, 0, 0, 0.00065617, 1449.5, 1724.5)">
						<g stroke-width="38100" stroke="#ffffff" stroke-miterlimit="8">
							<use xlink:href="#mfid10" fill="none"/>
							<defs>
								<path id="mfid11"
										d="M39510,344360 C190610,94775 606410,1099.3 1418900,12.922 C2231400,-1073.5 4382100,67374 4914700,337850 C5447200,608320 4962100,1246900 4614200,1622800 C4028100,1789100 1134400,1688300 512310,1497600 C197560,1055800 -111590,593960 39510,344360 Z"/>
							</defs>
						</g>
					</g>
					<g transform="matrix(0.00065617, 0, 0, 0.00065617, 12.5, 12.5)">
						<g stroke-width="38100" stroke="#ffffff" stroke-miterlimit="8">
							<use xlink:href="#mfid11" fill="none"/>
							<defs>
								<path id="mfid12"
										d="M0,76200 C-0.00000000007373,34116 25928,-0.000000000097013 57912,-0.00000000019403 C89896,-0.00000000038805 115820,34116 115820,76200 C115820,118280 89896,152400 57912,152400 C25928,152400 -0.00000000036865,118280 0,76200 Z"/>
							</defs>
						</g>
					</g>
					<g transform="matrix(0.00065617, 0, 0, 0.00065617, 577.5, 211.5)">
						<g stroke-width="38100" stroke="#ffffff" stroke-miterlimit="8">
							<use xlink:href="#mfid12" fill="none"/>
							<defs>
								<path id="mfid13"
										d="M0,76200 C-0.000000000097013,34116 34116,-0.000000000097013 76200,-0.00000000019403 C118280,-0.00000000038805 152400,34116 152400,76200 C152400,118280 118280,152400 76200,152400 C34116,152400 -0.00000000048506,118280 0,76200 Z"/>
							</defs>
						</g>
					</g>
					<g transform="matrix(0.00065617, 0, 0, 0.00065617, 1399.5, 116.5)">
						<g stroke-width="38100" stroke="#ffffff" stroke-miterlimit="8">
							<use xlink:href="#mfid13" fill="none"/>
							<defs>
								<path id="mfid14"
										d="M0,76200 C-0.000000000097013,34116 34116,-0.000000000097013 76200,-0.00000000019403 C118280,-0.00000000038805 152400,34116 152400,76200 C152400,118280 118280,152400 76200,152400 C34116,152400 -0.00000000048506,118280 0,76200 Z"/>
							</defs>
						</g>
					</g>
					<g transform="matrix(0.00065617, 0, 0, 0.00065617, 933.5, 695.5)">
						<g stroke-width="38100" stroke="#ffffff" stroke-miterlimit="8">
							<use xlink:href="#mfid14" fill="none"/>
							<defs>
								<path id="mfid15"
										d="M0,76200 C-0.000000000097013,34116 34116,-0.000000000097013 76200,-0.00000000019403 C118280,-0.00000000038805 152400,34116 152400,76200 C152400,118280 118280,152400 76200,152400 C34116,152400 -0.00000000048506,118280 0,76200 Z"/>
							</defs>
						</g>
					</g>
					<g transform="matrix(0.00065617, 0, 0, 0.00065617, 2480.5, 834.5)">
						<g stroke-width="38100" stroke="#ffffff" stroke-miterlimit="8">
							<use xlink:href="#mfid15" fill="none"/>
							<defs>
								<path id="mfid16"
										d="M0,76200 C-0.000000000097013,34116 34116,-0.000000000097013 76200,-0.00000000019403 C118280,-0.00000000038805 152400,34116 152400,76200 C152400,118280 118280,152400 76200,152400 C34116,152400 -0.00000000048506,118280 0,76200 Z"/>
							</defs>
						</g>
					</g>
					<g transform="matrix(0.00065617, 0, 0, 0.00065617, 2933.5, 392.5)">
						<g stroke-width="38100" stroke="#ffffff" stroke-miterlimit="8">
							<use xlink:href="#mfid16" fill="none"/>
							<defs>
								<path id="mfid17"
										d="M0,76200 C-0.000000000097013,34116 34116,-0.000000000097013 76200,-0.00000000019403 C118280,-0.00000000038805 152400,34116 152400,76200 C152400,118280 118280,152400 76200,152400 C34116,152400 -0.00000000048506,118280 0,76200 Z"/>
							</defs>
						</g>
					</g>
					<g transform="matrix(0.00065617, 0, 0, 0.00065617, 2074.5, 447.5)">
						<g stroke-width="38100" stroke="#ffffff" stroke-miterlimit="8">
							<use xlink:href="#mfid17" fill="none"/>
							<defs>
								<path id="mfid18"
										d="M0,76200 C-0.000000000040745,34116 14329,-0.000000000097013 32004,-0.00000000019403 C49679,-0.00000000038805 64008,34116 64008,76200 C64008,118280 49679,152400 32004,152400 C14329,152400 -0.00000000020373,118280 0,76200 Z"/>
							</defs>
						</g>
					</g>
					<g transform="matrix(0.00065617, 0, 0, 0.00065617, 114.5, 397.5)">
						<g stroke-width="38100" stroke="#ffffff" stroke-miterlimit="8">
							<use xlink:href="#mfid18" fill="none"/>
							<defs>
								<path id="mfid19"
										d="M0,76200 C-0.000000000040354,34116 14191,-0.000000000097013 31696,-0.00000000019403 C49202,-0.00000000038805 63393,34116 63393,76200 C63393,118280 49202,152400 31696,152400 C14191,152400 -0.00000000020177,118280 0,76200 Z"/>
							</defs>
						</g>
					</g>
					<g transform="matrix(0.00052802, 0.00038956, -0.00038956, 0.00052802, 3078, 859.41)">
						<g stroke-width="38100" stroke="#ffffff" stroke-miterlimit="8">
							<use xlink:href="#mfid19" fill="none"/>
							<defs>
								<path id="mfid20"
										d="M0,64458 C741480,25798 1518700,-15252 2196500,5645.6 C2874300,26543 4088500,166550 4102600,187450"/>
							</defs>
						</g>
					</g>
					<g transform="matrix(0.00065617, 0, 0, 0.00065617, 341.5, 950.5)">
						<g stroke-width="38100" stroke="#ffffff" stroke-miterlimit="8">
							<use xlink:href="#mfid20" fill="none"/>
							<defs>
								<path id="mfid21"
										d="M0,0 C73539,56127 89411,321940 130150,533740 C170890,745540 184110,1067500 244420,1270800 C304740,1474100 408430,1655200 492030,1753700 C575620,1852200 645450,1879700 745980,1861700 C846500,1843700 1007300,1853300 1095200,1645700 C1183000,1438100 1225300,828150 1263400,667180"/>
							</defs>
						</g>
					</g>
					<g transform="matrix(0.00065617, 0, 0, 0.00065617, 1207.5, 2578.5)">
						<g stroke-width="38100" stroke="#ffffff" stroke-miterlimit="8">
							<use xlink:href="#mfid21" fill="none"/>
							<defs>
								<path id="mfid22"
										d="M449530,0 C450850,102090 426240,223170 354270,272240 C282290,321300 66893,321300 17675,294390 C-31543,267490 31171,179640 93885,91800"/>
							</defs>
						</g>
					</g>
					<g transform="matrix(0.00065617, 0, 0, 0.00065617, 1885.5, 2814.5)">
						<g stroke-width="38100" stroke="#ffffff" stroke-miterlimit="8">
							<use xlink:href="#mfid22" fill="none"/>
							<defs>
								<path id="mfid23"
										d="M0,382520 C86734,242260 183000,97239 320090,34434 C457190,-28371 739770,14219 832100,12823"/>
							</defs>
						</g>
					</g>
					<g transform="matrix(0.00065617, 0, 0, 0.00065617, 1328.5, 1217.5)">
						<g stroke-width="38100" stroke="#ffffff" stroke-miterlimit="8">
							<use xlink:href="#mfid23" fill="none"/>
						</g>
					</g>
				</g>
			</svg>
			<rect x="0" y="0.749995" width="408.813" height="457.285" class="st1"/>
		</g>
	</g>
</svg>
