# 3ds Max Wavefront OBJ Exporter v0.97b - (c)2007 guruware
# File Created: 05.05.2021 15:33:51

mtllib right_home_button.mtl

#
# object right_home_button
#

v  0.0115 0.0333 0.0479
v  0.0111 0.0329 0.0470
v  0.0109 0.0342 0.0465
v  0.0113 0.0346 0.0474
v  0.0105 0.0325 0.0463
v  0.0103 0.0338 0.0457
v  0.0095 0.0334 0.0452
v  0.0092 0.0348 0.0446
v  0.0101 0.0352 0.0452
v  0.0092 0.0352 0.0444
v  0.0099 0.0356 0.0451
v  0.0085 0.0331 0.0448
v  0.0083 0.0345 0.0442
v  0.0082 0.0349 0.0441
v  0.0081 0.0353 0.0445
v  0.0088 0.0355 0.0449
v  0.0090 0.0354 0.0446
v  0.0082 0.0351 0.0442
v  0.0074 0.0343 0.0441
v  0.0073 0.0347 0.0440
v  0.0073 0.0349 0.0441
v  0.0072 0.0351 0.0444
v  0.0072 0.0354 0.0455
v  0.0078 0.0355 0.0456
v  0.0065 0.0348 0.0442
v  0.0065 0.0350 0.0445
v  0.0066 0.0353 0.0455
v  0.0057 0.0350 0.0447
v  0.0061 0.0353 0.0457
v  0.0065 0.0358 0.0467
v  0.0068 0.0358 0.0467
v  0.0050 0.0351 0.0451
v  0.0056 0.0354 0.0460
v  0.0063 0.0358 0.0469
v  0.0051 0.0355 0.0463
v  0.0061 0.0359 0.0471
v  0.0073 0.0359 0.0467
v  0.0070 0.0358 0.0467
v  0.0076 0.0360 0.0468
v  0.0083 0.0357 0.0458
v  0.0088 0.0359 0.0461
v  0.0095 0.0358 0.0454
v  0.0092 0.0362 0.0466
v  0.0100 0.0362 0.0461
v  0.0103 0.0362 0.0459
v  0.0098 0.0358 0.0452
v  0.0103 0.0365 0.0468
v  0.0106 0.0365 0.0467
v  0.0105 0.0360 0.0458
v  0.0109 0.0365 0.0467
v  0.0110 0.0361 0.0468
v  0.0106 0.0356 0.0459
v  0.0110 0.0369 0.0477
v  0.0112 0.0366 0.0479
v  0.0114 0.0351 0.0484
v  0.0109 0.0371 0.0490
v  0.0112 0.0355 0.0496
v  0.0103 0.0374 0.0500
v  0.0105 0.0359 0.0507
v  0.0096 0.0376 0.0508
v  0.0098 0.0362 0.0515
v  0.0101 0.0349 0.0521
v  0.0088 0.0363 0.0521
v  0.0089 0.0350 0.0527
v  0.0075 0.0362 0.0524
v  0.0077 0.0350 0.0530
v  0.0097 0.0321 0.0457
v  0.0086 0.0318 0.0453
v  0.0077 0.0316 0.0452
v  0.0075 0.0329 0.0446
v  0.0067 0.0328 0.0447
v  0.0065 0.0342 0.0442
v  0.0064 0.0346 0.0440
v  0.0058 0.0328 0.0450
v  0.0056 0.0342 0.0444
v  0.0055 0.0346 0.0443
v  0.0056 0.0349 0.0444
v  0.0047 0.0343 0.0448
v  0.0047 0.0347 0.0447
v  0.0048 0.0350 0.0449
v  0.0041 0.0351 0.0454
v  0.0044 0.0352 0.0456
v  0.0039 0.0354 0.0463
v  0.0048 0.0356 0.0468
v  0.0059 0.0359 0.0473
v  0.0036 0.0357 0.0470
v  0.0046 0.0358 0.0473
v  0.0058 0.0360 0.0476
v  0.0045 0.0361 0.0479
v  0.0058 0.0361 0.0478
v  0.0035 0.0360 0.0478
v  0.0036 0.0364 0.0487
v  0.0046 0.0363 0.0484
v  0.0059 0.0363 0.0481
v  0.0039 0.0368 0.0494
v  0.0049 0.0366 0.0490
v  0.0060 0.0364 0.0483
v  0.0053 0.0368 0.0494
v  0.0045 0.0372 0.0501
v  0.0062 0.0365 0.0485
v  0.0058 0.0370 0.0498
v  0.0064 0.0366 0.0487
v  0.0080 0.0362 0.0472
v  0.0081 0.0363 0.0475
v  0.0093 0.0364 0.0472
v  0.0078 0.0360 0.0470
v  0.0093 0.0367 0.0477
v  0.0103 0.0369 0.0477
v  0.0092 0.0369 0.0484
v  0.0101 0.0373 0.0486
v  0.0104 0.0374 0.0487
v  0.0107 0.0370 0.0477
v  0.0097 0.0376 0.0494
v  0.0100 0.0377 0.0496
v  0.0107 0.0374 0.0488
v  0.0102 0.0377 0.0498
v  0.0090 0.0378 0.0501
v  0.0093 0.0379 0.0503
v  0.0094 0.0379 0.0506
v  0.0082 0.0379 0.0506
v  0.0083 0.0380 0.0509
v  0.0084 0.0380 0.0511
v  0.0086 0.0377 0.0514
v  0.0072 0.0380 0.0514
v  0.0073 0.0377 0.0517
v  0.0060 0.0378 0.0514
v  0.0060 0.0375 0.0517
v  0.0063 0.0361 0.0523
v  0.0049 0.0371 0.0513
v  0.0051 0.0357 0.0520
v  0.0042 0.0353 0.0514
v  0.0044 0.0341 0.0519
v  0.0052 0.0345 0.0525
v  0.0036 0.0349 0.0506
v  0.0037 0.0336 0.0512
v  0.0033 0.0331 0.0500
v  0.0032 0.0344 0.0495
v  0.0034 0.0322 0.0480
v  0.0032 0.0335 0.0475
v  0.0037 0.0333 0.0467
v  0.0039 0.0320 0.0472
v  0.0032 0.0326 0.0490
v  0.0031 0.0339 0.0485
v  0.0030 0.0359 0.0490
v  0.0029 0.0354 0.0480
v  0.0030 0.0363 0.0488
v  0.0029 0.0358 0.0478
v  0.0034 0.0363 0.0500
v  0.0034 0.0368 0.0498
v  0.0036 0.0369 0.0496
v  0.0032 0.0364 0.0488
v  0.0040 0.0367 0.0507
v  0.0040 0.0372 0.0505
v  0.0042 0.0372 0.0503
v  0.0050 0.0376 0.0508
v  0.0052 0.0375 0.0506
v  0.0062 0.0377 0.0508
v  0.0065 0.0372 0.0499
v  0.0067 0.0367 0.0487
v  0.0072 0.0379 0.0509
v  0.0072 0.0373 0.0499
v  0.0071 0.0367 0.0487
v  0.0079 0.0373 0.0497
v  0.0074 0.0368 0.0487
v  0.0084 0.0372 0.0494
v  0.0077 0.0367 0.0485
v  0.0089 0.0371 0.0489
v  0.0079 0.0366 0.0483
v  0.0080 0.0365 0.0480
v  0.0081 0.0364 0.0477
v  0.0061 0.0379 0.0512
v  0.0072 0.0380 0.0512
v  0.0049 0.0375 0.0510
v  0.0031 0.0360 0.0478
v  0.0033 0.0357 0.0469
v  0.0036 0.0354 0.0461
v  0.0035 0.0351 0.0460
v  0.0035 0.0347 0.0461
v  0.0030 0.0350 0.0470
v  0.0031 0.0355 0.0469
v  0.0040 0.0349 0.0453
v  0.0040 0.0345 0.0454
v  0.0043 0.0330 0.0460
v  0.0050 0.0329 0.0454
v  0.0060 0.0315 0.0455
v  0.0051 0.0316 0.0460
v  0.0068 0.0315 0.0453
v  0.0115 0.0342 0.0501
v  0.0117 0.0337 0.0490
v  0.0107 0.0346 0.0513
v  0.0065 0.0348 0.0530
v  0.0045 0.0317 0.0465
v  0.0069 0.0362 0.0477
# 193 vertices

vn 0.9548 0.0363 -0.2950
vn 0.8724 -0.0445 -0.4867
vn 0.8716 -0.0457 -0.4881
vn 0.9543 0.0428 -0.2957
vn 0.7319 -0.1553 -0.6634
vn 0.7237 -0.1533 -0.6729
vn 0.5223 -0.2457 -0.8166
vn 0.5193 -0.1907 -0.8330
vn 0.7138 -0.0659 -0.6973
vn 0.3805 0.2678 -0.8851
vn 0.5335 0.3831 -0.7541
vn 0.3118 -0.3277 -0.8918
vn 0.2911 -0.2500 -0.9234
vn 0.1917 0.1692 -0.9667
vn -0.1184 0.9242 -0.3632
vn -0.1713 0.9388 -0.2989
vn 0.0027 0.8112 -0.5848
vn -0.0115 0.7187 -0.6952
vn 0.0564 -0.2956 -0.9536
vn 0.0065 0.1326 -0.9911
vn -0.0901 0.6907 -0.7175
vn -0.1404 0.9069 -0.3971
vn -0.1276 0.9445 -0.3029
vn -0.1338 0.9428 -0.3055
vn -0.1507 0.7090 -0.6889
vn -0.1509 0.9145 -0.3753
vn -0.1380 0.9395 -0.3136
vn -0.0806 0.9473 -0.3101
vn -0.1020 0.9409 -0.3229
vn -0.0889 0.9177 -0.3871
vn -0.1126 0.9238 -0.3660
vn -0.0534 0.9461 -0.3196
vn -0.0664 0.9391 -0.3373
vn -0.1128 0.9218 -0.3709
vn -0.0581 0.9382 -0.3413
vn -0.1202 0.9251 -0.3602
vn -0.1485 0.9154 -0.3743
vn -0.1343 0.9217 -0.3639
vn -0.1157 0.9242 -0.3640
vn -0.1719 0.9302 -0.3243
vn -0.2041 0.9132 -0.3528
vn -0.2201 0.9282 -0.3001
vn -0.1950 0.9096 -0.3668
vn -0.2269 0.9120 -0.3418
vn 0.0714 0.8831 -0.4636
vn 0.0308 0.8574 -0.5136
vn -0.2113 0.8971 -0.3879
vn 0.0717 0.9041 -0.4213
vn 0.6419 0.4690 -0.6067
vn 0.6738 0.5913 -0.4431
vn 0.9327 0.1474 -0.3290
vn 0.8569 0.0303 -0.5146
vn 0.6029 0.7489 -0.2750
vn 0.9475 0.3059 -0.0929
vn 0.9854 0.1667 -0.0351
vn 0.8861 0.4287 0.1765
vn 0.9237 0.2955 0.2439
vn 0.7643 0.4975 0.4102
vn 0.8139 0.3378 0.4728
vn 0.5567 0.5571 0.6162
vn 0.6078 0.4315 0.6666
vn 0.6209 0.4419 0.6475
vn 0.3400 0.4609 0.8197
vn 0.3140 0.4618 0.8295
vn 0.0509 0.4380 0.8975
vn 0.0517 0.4352 0.8989
vn 0.5122 -0.2394 -0.8248
vn 0.2829 -0.3448 -0.8950
vn 0.0748 -0.3946 -0.9158
vn 0.0731 -0.3746 -0.9243
vn -0.1621 -0.3928 -0.9052
vn -0.1468 -0.3238 -0.9347
vn -0.1601 0.1137 -0.9805
vn -0.3602 -0.4010 -0.8423
vn -0.3524 -0.3546 -0.8661
vn -0.3541 0.1126 -0.9284
vn -0.1869 0.7675 -0.6132
vn -0.5640 -0.3039 -0.7678
vn -0.5457 0.1680 -0.8210
vn -0.2653 0.7765 -0.5715
vn -0.3104 0.7850 -0.5362
vn -0.0570 0.9432 -0.3273
vn 0.0001 0.9448 -0.3275
vn -0.0514 0.9312 -0.3609
vn -0.0976 0.9164 -0.3882
vn 0.0245 0.9273 -0.3734
vn -0.0359 0.9147 -0.4025
vn -0.0992 0.9177 -0.3848
vn -0.0323 0.9105 -0.4122
vn -0.0840 0.9144 -0.3960
vn -0.0466 0.9108 -0.4101
vn -0.0448 0.9104 -0.4114
vn -0.0332 0.9086 -0.4164
vn -0.1035 0.8937 -0.4365
vn -0.0348 0.9028 -0.4287
vn -0.0493 0.9056 -0.4213
vn -0.0907 0.9082 -0.4087
vn -0.0555 0.8952 -0.4423
vn -0.0452 0.8846 -0.4642
vn -0.0457 0.9306 -0.3631
vn -0.0970 0.8714 -0.4809
vn -0.1177 0.8993 -0.4212
vn -0.1651 0.9014 -0.4002
vn -0.1547 0.9107 -0.3830
vn -0.2036 0.9023 -0.3800
vn -0.1487 0.9125 -0.3812
vn -0.2133 0.8935 -0.3951
vn -0.1829 0.8984 -0.3994
vn -0.2142 0.8970 -0.3866
vn -0.2140 0.8918 -0.3987
vn 0.0048 0.9345 -0.3559
vn 0.0252 0.9216 -0.3873
vn -0.2329 0.8649 -0.4447
vn 0.0080 0.9516 -0.3072
vn 0.5458 0.8332 -0.0889
vn 0.4942 0.8633 0.1019
vn -0.1832 0.8687 -0.4602
vn 0.0225 0.9784 -0.2055
vn 0.3850 0.8741 0.2962
vn -0.1441 0.8798 -0.4529
vn -0.0422 0.9786 -0.2015
vn 0.2010 0.8997 0.3874
vn 0.3174 0.5698 0.7581
vn -0.0053 0.8838 0.4678
vn 0.0594 0.5261 0.8483
vn -0.2651 0.8299 0.4909
vn -0.2455 0.4509 0.8581
vn -0.2485 0.3902 0.8866
vn -0.5111 0.3836 0.7692
vn -0.5095 0.3100 0.8027
vn -0.7244 0.2009 0.6595
vn -0.7193 0.2091 0.6625
vn -0.5235 0.3165 0.7911
vn -0.8816 0.1073 0.4596
vn -0.8863 0.1287 0.4449
vn -0.9763 -0.0244 0.2152
vn -0.9692 -0.0190 0.2457
vn -0.9331 -0.2303 -0.2761
vn -0.9476 -0.2164 -0.2348
vn -0.8358 -0.3077 -0.4548
vn -0.8278 -0.3276 -0.4554
vn -0.9932 -0.1158 -0.0071
vn -0.9935 -0.1126 0.0142
vn -0.9737 0.0325 0.2256
vn -0.9988 -0.0497 -0.0039
vn -0.8921 0.4501 0.0394
vn -0.9259 0.3375 -0.1696
vn -0.8814 0.1749 0.4389
vn -0.7907 0.5764 0.2063
vn -0.3486 0.9067 -0.2373
vn -0.4079 0.8666 -0.2874
vn -0.7209 0.2815 0.6333
vn -0.6624 0.6628 0.3492
vn -0.2916 0.9365 -0.1948
vn -0.2310 0.9559 -0.1812
vn -0.0829 0.8769 -0.4735
vn -0.1013 0.8744 -0.4746
vn -0.1265 0.8734 -0.4702
vn -0.1967 0.8796 -0.4332
vn -0.1179 0.8827 -0.4549
vn -0.1270 0.8806 -0.4564
vn -0.1673 0.8912 -0.4217
vn -0.1124 0.8812 -0.4593
vn -0.0704 0.8913 -0.4479
vn -0.1542 0.8688 -0.4706
vn -0.0798 0.8902 -0.4486
vn -0.2073 0.8849 -0.4172
vn -0.1644 0.9141 -0.3706
vn -0.1673 0.9164 -0.3637
vn -0.1599 0.9063 -0.3912
vn -0.1535 0.9674 -0.2016
vn -0.0875 0.9754 -0.2025
vn -0.4846 0.7584 0.4359
vn -0.4471 0.8198 -0.3580
vn -0.3310 0.8432 -0.4235
vn -0.3221 0.8102 -0.4897
vn -0.7844 0.2439 -0.5703
vn -0.8558 -0.1966 -0.4785
vn -0.9584 -0.1084 -0.2640
vn -0.8530 0.3392 -0.3967
vn -0.6746 0.2195 -0.7048
vn -0.7276 -0.2545 -0.6371
vn -0.7072 -0.3445 -0.6174
vn -0.5449 -0.3888 -0.7429
vn -0.3502 -0.3983 -0.8477
vn -0.5315 -0.3953 -0.7491
vn -0.1356 -0.4092 -0.9023
vn 0.9208 0.3236 0.2176
vn 0.9846 0.1558 -0.0797
vn 0.8115 0.3435 0.4727
vn -0.2372 0.4094 0.8810
vn -0.7020 -0.3374 -0.6272
vn -0.1236 0.9112 -0.3930
# 193 vertex normals

vt 0.5773 0.4973 0.0000
vt 0.5755 0.5073 0.0000
vt 0.5687 0.5049 0.0000
vt 0.5696 0.4973 0.0000
vt 0.5721 0.5157 0.0000
vt 0.5652 0.5118 0.0000
vt 0.5607 0.5184 0.0000
vt 0.5542 0.5123 0.0000
vt 0.5579 0.5075 0.0000
vt 0.5535 0.5110 0.0000
vt 0.5564 0.5065 0.0000
vt 0.5538 0.5235 0.0000
vt 0.5498 0.5159 0.0000
vt 0.5488 0.5147 0.0000
vt 0.5477 0.5123 0.0000
vt 0.5513 0.5088 0.0000
vt 0.5522 0.5102 0.0000
vt 0.5485 0.5135 0.0000
vt 0.5450 0.5181 0.0000
vt 0.5448 0.5166 0.0000
vt 0.5444 0.5155 0.0000
vt 0.5437 0.5142 0.0000
vt 0.5421 0.5081 0.0000
vt 0.5448 0.5067 0.0000
vt 0.5404 0.5165 0.0000
vt 0.5400 0.5150 0.0000
vt 0.5395 0.5090 0.0000
vt 0.5358 0.5145 0.0000
vt 0.5363 0.5088 0.0000
vt 0.5371 0.5022 0.0000
vt 0.5383 0.5024 0.0000
vt 0.5315 0.5133 0.0000
vt 0.5331 0.5080 0.0000
vt 0.5356 0.5018 0.0000
vt 0.5307 0.5064 0.0000
vt 0.5344 0.5012 0.0000
vt 0.5411 0.5014 0.0000
vt 0.5396 0.5020 0.0000
vt 0.5424 0.5004 0.0000
vt 0.5473 0.5048 0.0000
vt 0.5494 0.5022 0.0000
vt 0.5541 0.5051 0.0000
vt 0.5504 0.4987 0.0000
vt 0.5559 0.5004 0.0000
vt 0.5572 0.5010 0.0000
vt 0.5551 0.5058 0.0000
vt 0.5566 0.4961 0.0000
vt 0.5577 0.4961 0.0000
vt 0.5585 0.5017 0.0000
vt 0.5591 0.4961 0.0000
vt 0.5604 0.4961 0.0000
vt 0.5598 0.5020 0.0000
vt 0.5582 0.4903 0.0000
vt 0.5598 0.4901 0.0000
vt 0.5688 0.4885 0.0000
vt 0.5564 0.4841 0.0000
vt 0.5655 0.4793 0.0000
vt 0.5525 0.4787 0.0000
vt 0.5582 0.4712 0.0000
vt 0.5474 0.4752 0.0000
vt 0.5514 0.4676 0.0000
vt 0.5546 0.4601 0.0000
vt 0.5428 0.4646 0.0000
vt 0.5430 0.4572 0.0000
vt 0.5325 0.4647 0.0000
vt 0.5313 0.4579 0.0000
vt 0.5654 0.5237 0.0000
vt 0.5575 0.5301 0.0000
vt 0.5496 0.5337 0.0000
vt 0.5471 0.5261 0.0000
vt 0.5411 0.5277 0.0000
vt 0.5404 0.5186 0.0000
vt 0.5404 0.5174 0.0000
vt 0.5346 0.5275 0.0000
vt 0.5350 0.5186 0.0000
vt 0.5353 0.5175 0.0000
vt 0.5356 0.5161 0.0000
vt 0.5300 0.5172 0.0000
vt 0.5303 0.5162 0.0000
vt 0.5308 0.5146 0.0000
vt 0.5267 0.5127 0.0000
vt 0.5276 0.5119 0.0000
vt 0.5243 0.5088 0.0000
vt 0.5283 0.5049 0.0000
vt 0.5330 0.4996 0.0000
vt 0.5219 0.5053 0.0000
vt 0.5266 0.5019 0.0000
vt 0.5324 0.4989 0.0000
vt 0.5255 0.4991 0.0000
vt 0.5320 0.4977 0.0000
vt 0.5200 0.5012 0.0000
vt 0.5192 0.4960 0.0000
vt 0.5250 0.4958 0.0000
vt 0.5322 0.4959 0.0000
vt 0.5198 0.4910 0.0000
vt 0.5259 0.4924 0.0000
vt 0.5324 0.4946 0.0000
vt 0.5271 0.4893 0.0000
vt 0.5217 0.4864 0.0000
vt 0.5331 0.4933 0.0000
vt 0.5293 0.4865 0.0000
vt 0.5341 0.4919 0.0000
vt 0.5436 0.4975 0.0000
vt 0.5438 0.4956 0.0000
vt 0.5509 0.4959 0.0000
vt 0.5429 0.4992 0.0000
vt 0.5500 0.4923 0.0000
vt 0.5553 0.4909 0.0000
vt 0.5483 0.4894 0.0000
vt 0.5533 0.4862 0.0000
vt 0.5540 0.4854 0.0000
vt 0.5567 0.4905 0.0000
vt 0.5496 0.4822 0.0000
vt 0.5505 0.4808 0.0000
vt 0.5554 0.4847 0.0000
vt 0.5514 0.4798 0.0000
vt 0.5455 0.4789 0.0000
vt 0.5464 0.4781 0.0000
vt 0.5471 0.4763 0.0000
vt 0.5405 0.4777 0.0000
vt 0.5408 0.4763 0.0000
vt 0.5409 0.4753 0.0000
vt 0.5413 0.4741 0.0000
vt 0.5341 0.4750 0.0000
vt 0.5341 0.4735 0.0000
vt 0.5279 0.4773 0.0000
vt 0.5275 0.4762 0.0000
vt 0.5234 0.4678 0.0000
vt 0.5212 0.4797 0.0000
vt 0.5149 0.4738 0.0000
vt 0.5096 0.4807 0.0000
vt 0.5035 0.4769 0.0000
vt 0.5102 0.4686 0.0000
vt 0.5069 0.4879 0.0000
vt 0.4996 0.4869 0.0000
vt 0.4987 0.4988 0.0000
vt 0.5058 0.4979 0.0000
vt 0.5057 0.5183 0.0000
vt 0.5114 0.5138 0.0000
vt 0.5157 0.5189 0.0000
vt 0.5117 0.5250 0.0000
vt 0.5007 0.5097 0.0000
vt 0.5076 0.5061 0.0000
vt 0.5152 0.4965 0.0000
vt 0.5158 0.5028 0.0000
vt 0.5166 0.4960 0.0000
vt 0.5173 0.5021 0.0000
vt 0.5153 0.4902 0.0000
vt 0.5171 0.4904 0.0000
vt 0.5187 0.4907 0.0000
vt 0.5177 0.4959 0.0000
vt 0.5181 0.4849 0.0000
vt 0.5192 0.4855 0.0000
vt 0.5207 0.4859 0.0000
vt 0.5239 0.4817 0.0000
vt 0.5249 0.4827 0.0000
vt 0.5298 0.4795 0.0000
vt 0.5326 0.4847 0.0000
vt 0.5355 0.4913 0.0000
vt 0.5349 0.4775 0.0000
vt 0.5363 0.4836 0.0000
vt 0.5369 0.4907 0.0000
vt 0.5399 0.4836 0.0000
vt 0.5389 0.4906 0.0000
vt 0.5431 0.4846 0.0000
vt 0.5405 0.4909 0.0000
vt 0.5462 0.4866 0.0000
vt 0.5417 0.4918 0.0000
vt 0.5426 0.4930 0.0000
vt 0.5434 0.4948 0.0000
vt 0.5289 0.4784 0.0000
vt 0.5345 0.4765 0.0000
vt 0.5228 0.4810 0.0000
vt 0.5185 0.5016 0.0000
vt 0.5208 0.5062 0.0000
vt 0.5236 0.5099 0.0000
vt 0.5224 0.5111 0.0000
vt 0.5217 0.5119 0.0000
vt 0.5184 0.5081 0.0000
vt 0.5197 0.5070 0.0000
vt 0.5264 0.5138 0.0000
vt 0.5261 0.5152 0.0000
vt 0.5216 0.5231 0.0000
vt 0.5278 0.5262 0.0000
vt 0.5342 0.5350 0.0000
vt 0.5254 0.5331 0.0000
vt 0.5420 0.5352 0.0000
vt 0.5722 0.4763 0.0000
vt 0.5763 0.4871 0.0000
vt 0.5633 0.4657 0.0000
vt 0.5203 0.4611 0.0000
vt 0.5186 0.5302 0.0000
vt 0.5379 0.4964 0.0000
# 193 texture coords

o right_home_button
g right_home_button
usemtl Material__1
s 1
f 1/1/1 2/2/2 3/3/3 4/4/4 
f 5/5/5 6/6/6 3/3/3 2/2/2 
f 6/6/6 7/7/7 8/8/8 9/9/9 
f 10/10/10 11/11/11 9/9/9 8/8/8 
f 7/7/7 12/12/12 13/13/13 8/8/8 
f 8/8/8 13/13/13 14/14/14 10/10/10 
f 15/15/15 16/16/16 17/17/17 18/18/18 
f 13/13/13 19/19/19 20/20/20 14/14/14 
f 15/15/15 18/18/18 21/21/21 22/22/22 
f 23/23/23 24/24/24 15/15/15 22/22/22 
f 22/22/22 21/21/21 25/25/25 26/26/26 
f 22/22/22 26/26/26 27/27/27 23/23/23 
f 28/28/28 29/29/29 27/27/27 26/26/26 
f 29/29/29 30/30/30 31/31/31 27/27/27 
f 29/29/29 28/28/28 32/32/32 33/33/33 
f 30/30/30 29/29/29 33/33/33 34/34/34 
f 35/35/35 36/36/36 34/34/34 33/33/33 
f 37/37/37 24/24/24 23/23/23 38/38/38 
f 38/38/38 23/23/23 27/27/27 31/31/31 
f 24/24/24 37/37/37 39/39/39 40/40/40 
f 24/24/24 40/40/40 16/16/16 15/15/15 
f 40/40/40 41/41/41 42/42/42 16/16/16 
f 41/41/41 43/43/43 44/44/44 42/42/42 
f 42/42/42 44/44/44 45/45/45 46/46/46 
f 46/46/46 17/17/17 16/16/16 42/42/42 
f 44/44/44 47/47/47 48/48/48 45/45/45 
f 49/49/49 50/50/50 51/51/51 52/52/52 
f 52/52/52 9/9/9 11/11/11 49/49/49 
f 50/50/50 53/53/53 54/54/54 51/51/51 
f 51/51/51 54/54/54 55/55/55 4/4/4 
f 54/54/54 56/56/56 57/57/57 55/55/55 
f 58/58/58 59/59/59 57/57/57 56/56/56 
f 60/60/60 61/61/61 59/59/59 58/58/58 
f 62/62/62 61/61/61 63/63/63 64/64/64 
f 64/64/64 63/63/63 65/65/65 66/66/66 
f 12/12/12 7/7/7 67/67/67 68/68/68 
f 69/69/69 70/70/70 12/12/12 68/68/68 
f 19/19/19 70/70/70 71/71/71 72/72/72 
f 73/73/73 20/20/20 19/19/19 72/72/72 
f 72/72/72 71/71/71 74/74/74 75/75/75 
f 72/72/72 75/75/75 76/76/76 73/73/73 
f 77/77/77 28/28/28 26/26/26 25/25/25 
f 76/76/76 75/75/75 78/78/78 79/79/79 
f 80/80/80 32/32/32 28/28/28 77/77/77 
f 80/80/80 81/81/81 82/82/82 32/32/32 
f 82/82/82 35/35/35 33/33/33 32/32/32 
f 83/83/83 84/84/84 35/35/35 82/82/82 
f 84/84/84 85/85/85 36/36/36 35/35/35 
f 84/84/84 83/83/83 86/86/86 87/87/87 
f 87/87/87 88/88/88 85/85/85 84/84/84 
f 88/88/88 87/87/87 89/89/89 90/90/90 
f 87/87/87 86/86/86 91/91/91 89/89/89 
f 89/89/89 91/91/91 92/92/92 93/93/93 
f 93/93/93 94/94/94 90/90/90 89/89/89 
f 93/93/93 92/92/92 95/95/95 96/96/96 
f 94/94/94 93/93/93 96/96/96 97/97/97 
f 98/98/98 96/96/96 95/95/95 99/99/99 
f 96/96/96 98/98/98 100/100/100 97/97/97 
f 101/101/101 102/102/102 100/100/100 98/98/98 
f 43/43/43 103/103/103 104/104/104 105/105/105 
f 41/41/41 106/106/106 103/103/103 43/43/43 
f 40/40/40 39/39/39 106/106/106 41/41/41 
f 43/43/43 105/105/105 47/47/47 44/44/44 
f 105/105/105 107/107/107 108/108/108 47/47/47 
f 107/107/107 109/109/109 110/110/110 108/108/108 
f 110/110/110 111/111/111 112/112/112 108/108/108 
f 112/112/112 48/48/48 47/47/47 108/108/108 
f 111/111/111 110/110/110 113/113/113 114/114/114 
f 56/56/56 115/115/115 116/116/116 58/58/58 
f 56/56/56 54/54/54 53/53/53 115/115/115 
f 114/114/114 113/113/113 117/117/117 118/118/118 
f 119/119/119 60/60/60 58/58/58 116/116/116 
f 117/117/117 120/120/120 121/121/121 118/118/118 
f 119/119/119 122/122/122 123/123/123 60/60/60 
f 122/122/122 124/124/124 125/125/125 123/123/123 
f 124/124/124 126/126/126 127/127/127 125/125/125 
f 125/125/125 127/127/127 128/128/128 65/65/65 
f 129/129/129 130/130/130 128/128/128 127/127/127 
f 130/130/130 131/131/131 132/132/132 133/133/133 
f 132/132/132 131/131/131 134/134/134 135/135/135 
f 136/136/136 135/135/135 134/134/134 137/137/137 
f 138/138/138 139/139/139 140/140/140 141/141/141 
f 142/142/142 143/143/143 139/139/139 138/138/138 
f 137/137/137 144/144/144 145/145/145 143/143/143 
f 144/144/144 146/146/146 147/147/147 145/145/145 
f 148/148/148 149/149/149 146/146/146 144/144/144 
f 150/150/150 95/95/95 92/92/92 151/151/151 
f 149/149/149 148/148/148 152/152/152 153/153/153 
f 154/154/154 99/99/99 95/95/95 150/150/150 
f 99/99/99 154/154/154 155/155/155 156/156/156 
f 156/156/156 101/101/101 98/98/98 99/99/99 
f 157/157/157 158/158/158 101/101/101 156/156/156 
f 158/158/158 159/159/159 102/102/102 101/101/101 
f 158/158/158 157/157/157 160/160/160 161/161/161 
f 158/158/158 161/161/161 162/162/162 159/159/159 
f 161/161/161 163/163/163 164/164/164 162/162/162 
f 165/165/165 166/166/166 164/164/164 163/163/163 
f 167/167/167 168/168/168 166/166/166 165/165/165 
f 109/109/109 169/169/169 168/168/168 167/167/167 
f 109/109/109 107/107/107 170/170/170 169/169/169 
f 167/167/167 113/113/113 110/110/110 109/109/109 
f 165/165/165 117/117/117 113/113/113 167/167/167 
f 163/163/163 120/120/120 117/117/117 165/165/165 
f 161/161/161 160/160/160 120/120/120 163/163/163 
f 157/157/157 171/171/171 172/172/172 160/160/160 
f 160/160/160 172/172/172 121/121/121 120/120/120 
f 156/156/156 155/155/155 171/171/171 157/157/157 
f 153/153/153 152/152/152 129/129/129 173/173/173 
f 173/173/173 129/129/129 127/127/127 126/126/126 
f 151/151/151 92/92/92 91/91/91 174/174/174 
f 86/86/86 175/175/175 174/174/174 91/91/91 
f 175/175/175 86/86/86 83/83/83 176/176/176 
f 177/177/177 178/178/178 179/179/179 180/180/180 
f 180/180/180 179/179/179 145/145/145 147/147/147 
f 178/178/178 177/177/177 181/181/181 182/182/182 
f 182/182/182 183/183/183 140/140/140 178/178/178 
f 78/78/78 184/184/184 183/183/183 182/182/182 
f 184/184/184 74/74/74 185/185/185 186/186/186 
f 185/185/185 74/74/74 71/71/71 187/187/187 
f 182/182/182 181/181/181 79/79/79 78/78/78 
f 176/176/176 83/83/83 82/82/82 81/81/81 
f 107/107/107 105/105/105 104/104/104 170/170/170 
f 52/52/52 51/51/51 4/4/4 3/3/3 
f 9/9/9 52/52/52 3/3/3 6/6/6 
f 6/6/6 5/5/5 67/67/67 7/7/7 
f 188/188/188 189/189/189 55/55/55 57/57/57 
f 4/4/4 55/55/55 189/189/189 1/1/1 
f 190/190/190 188/188/188 57/57/57 59/59/59 
f 59/59/59 61/61/61 62/62/62 190/190/190 
f 60/60/60 123/123/123 63/63/63 61/61/61 
f 63/63/63 123/123/123 125/125/125 65/65/65 
f 19/19/19 13/13/13 12/12/12 70/70/70 
f 69/69/69 187/187/187 71/71/71 70/70/70 
f 133/133/133 191/191/191 128/128/128 130/130/130 
f 191/191/191 66/66/66 65/65/65 128/128/128 
f 131/131/131 130/130/130 129/129/129 152/152/152 
f 131/131/131 152/152/152 148/148/148 134/134/134 
f 134/134/134 148/148/148 144/144/144 137/137/137 
f 139/139/139 179/179/179 178/178/178 140/140/140 
f 143/143/143 145/145/145 179/179/179 139/139/139 
f 143/143/143 142/142/142 136/136/136 137/137/137 
f 184/184/184 186/186/186 192/192/192 183/183/183 
f 183/183/183 192/192/192 141/141/141 140/140/140 
f 184/184/184 78/78/78 75/75/75 74/74/74 
f 90/90/90 94/94/94 193/193/193 
f 94/94/94 97/97/97 193/193/193 
f 31/31/31 30/30/30 193/193/193 
f 30/30/30 34/34/34 193/193/193 
f 34/34/34 36/36/36 193/193/193 
f 36/36/36 85/85/85 193/193/193 
f 37/37/37 38/38/38 193/193/193 
f 38/38/38 31/31/31 193/193/193 
f 39/39/39 37/37/37 193/193/193 
f 85/85/85 88/88/88 193/193/193 
f 88/88/88 90/90/90 193/193/193 
f 97/97/97 100/100/100 193/193/193 
f 100/100/100 102/102/102 193/193/193 
f 102/102/102 159/159/159 193/193/193 
f 170/170/170 104/104/104 193/193/193 
f 104/104/104 103/103/103 193/193/193 
f 103/103/103 106/106/106 193/193/193 
f 106/106/106 39/39/39 193/193/193 
f 159/159/159 162/162/162 193/193/193 
f 162/162/162 164/164/164 193/193/193 
f 164/164/164 166/166/166 193/193/193 
f 166/166/166 168/168/168 193/193/193 
f 168/168/168 169/169/169 193/193/193 
f 169/169/169 170/170/170 193/193/193 
f 17/17/17 46/46/46 11/11/11 10/10/10 
f 18/18/18 17/17/17 10/10/10 14/14/14 
f 21/21/21 18/18/18 14/14/14 20/20/20 
f 20/20/20 73/73/73 25/25/25 21/21/21 
f 49/49/49 11/11/11 46/46/46 45/45/45 
f 50/50/50 49/49/49 45/45/45 48/48/48 
f 48/48/48 112/112/112 53/53/53 50/50/50 
f 77/77/77 25/25/25 73/73/73 76/76/76 
f 79/79/79 80/80/80 77/77/77 76/76/76 
f 80/80/80 79/79/79 181/181/181 81/81/81 
f 115/115/115 53/53/53 112/112/112 111/111/111 
f 114/114/114 116/116/116 115/115/115 111/111/111 
f 118/118/118 119/119/119 116/116/116 114/114/114 
f 122/122/122 119/119/119 118/118/118 121/121/121 
f 122/122/122 121/121/121 172/172/172 124/124/124 
f 124/124/124 172/172/172 171/171/171 126/126/126 
f 146/146/146 151/151/151 174/174/174 147/147/147 
f 149/149/149 150/150/150 151/151/151 146/146/146 
f 153/153/153 154/154/154 150/150/150 149/149/149 
f 154/154/154 153/153/153 173/173/173 155/155/155 
f 155/155/155 173/173/173 126/126/126 171/171/171 
f 175/175/175 180/180/180 147/147/147 174/174/174 
f 176/176/176 177/177/177 180/180/180 175/175/175 
f 177/177/177 176/176/176 81/81/81 181/181/181 
# 168 polygons - 24 triangles

