# 3ds Max Wavefront OBJ Exporter v0.97b - (c)2007 guruware
# File Created: 05.05.2021 15:29:47

mtllib left_y_button.mtl

#
# object left_y_button
#

v  0.0063 0.0261 0.0291
v  0.0052 0.0263 0.0294
v  0.0050 0.0251 0.0300
v  0.0062 0.0249 0.0298
v  0.0073 0.0245 0.0291
v  0.0073 0.0258 0.0285
v  0.0081 0.0254 0.0278
v  0.0082 0.0240 0.0283
v  0.0086 0.0249 0.0269
v  0.0086 0.0235 0.0273
v  0.0081 0.0267 0.0273
v  0.0074 0.0271 0.0280
v  0.0087 0.0263 0.0265
v  0.0090 0.0258 0.0255
v  0.0089 0.0245 0.0260
v  0.0090 0.0254 0.0245
v  0.0089 0.0241 0.0250
v  0.0090 0.0264 0.0253
v  0.0087 0.0269 0.0262
v  0.0090 0.0260 0.0243
v  0.0088 0.0256 0.0234
v  0.0088 0.0250 0.0236
v  0.0090 0.0263 0.0242
v  0.0089 0.0267 0.0252
v  0.0088 0.0259 0.0233
v  0.0084 0.0253 0.0225
v  0.0083 0.0256 0.0224
v  0.0087 0.0267 0.0241
v  0.0085 0.0263 0.0233
v  0.0081 0.0266 0.0233
v  0.0083 0.0269 0.0241
v  0.0081 0.0260 0.0224
v  0.0078 0.0262 0.0225
v  0.0075 0.0257 0.0217
v  0.0072 0.0260 0.0218
v  0.0065 0.0258 0.0213
v  0.0067 0.0255 0.0212
v  0.0058 0.0254 0.0208
v  0.0057 0.0257 0.0210
v  0.0032 0.0261 0.0211
v  0.0041 0.0259 0.0209
v  0.0040 0.0256 0.0206
v  0.0030 0.0258 0.0209
v  0.0049 0.0258 0.0208
v  0.0049 0.0255 0.0206
v  0.0039 0.0252 0.0205
v  0.0049 0.0251 0.0204
v  0.0049 0.0248 0.0205
v  0.0038 0.0249 0.0205
v  0.0059 0.0251 0.0206
v  0.0059 0.0248 0.0207
v  0.0059 0.0241 0.0209
v  0.0048 0.0241 0.0207
v  0.0069 0.0248 0.0211
v  0.0069 0.0242 0.0214
v  0.0069 0.0251 0.0211
v  0.0078 0.0250 0.0217
v  0.0077 0.0244 0.0220
v  0.0077 0.0253 0.0217
v  0.0083 0.0246 0.0228
v  0.0083 0.0234 0.0234
v  0.0077 0.0231 0.0226
v  0.0087 0.0237 0.0242
v  0.0087 0.0227 0.0255
v  0.0086 0.0223 0.0247
v  0.0088 0.0230 0.0263
v  0.0083 0.0220 0.0240
v  0.0077 0.0218 0.0233
v  0.0069 0.0215 0.0227
v  0.0069 0.0229 0.0220
v  0.0059 0.0228 0.0215
v  0.0060 0.0215 0.0221
v  0.0048 0.0215 0.0218
v  0.0048 0.0228 0.0213
v  0.0037 0.0229 0.0213
v  0.0038 0.0242 0.0208
v  0.0026 0.0232 0.0216
v  0.0027 0.0245 0.0211
v  0.0028 0.0251 0.0208
v  0.0017 0.0249 0.0217
v  0.0018 0.0255 0.0214
v  0.0029 0.0254 0.0208
v  0.0019 0.0258 0.0213
v  0.0012 0.0262 0.0221
v  0.0011 0.0259 0.0222
v  0.0021 0.0262 0.0214
v  0.0024 0.0264 0.0216
v  0.0014 0.0266 0.0222
v  0.0018 0.0268 0.0222
v  0.0015 0.0272 0.0230
v  0.0010 0.0270 0.0230
v  0.0014 0.0280 0.0247
v  0.0014 0.0276 0.0239
v  0.0009 0.0275 0.0239
v  0.0010 0.0278 0.0249
v  0.0005 0.0272 0.0240
v  0.0003 0.0269 0.0241
v  0.0005 0.0274 0.0252
v  0.0006 0.0276 0.0251
v  0.0007 0.0267 0.0230
v  0.0005 0.0264 0.0231
v  0.0004 0.0258 0.0234
v  0.0003 0.0263 0.0245
v  0.0010 0.0253 0.0225
v  0.0008 0.0240 0.0230
v  0.0002 0.0245 0.0240
v  0.0016 0.0236 0.0222
v  0.0025 0.0218 0.0221
v  0.0014 0.0222 0.0227
v  0.0036 0.0216 0.0218
v  0.0006 0.0228 0.0236
v  0.0000 0.0233 0.0246
v  0.0001 0.0250 0.0251
v  -0.0001 0.0238 0.0258
v  0.0002 0.0255 0.0261
v  0.0000 0.0242 0.0268
v  0.0004 0.0267 0.0255
v  0.0008 0.0271 0.0265
v  0.0006 0.0259 0.0271
v  0.0014 0.0274 0.0273
v  0.0013 0.0262 0.0279
v  0.0009 0.0278 0.0262
v  0.0015 0.0281 0.0270
v  0.0023 0.0283 0.0277
v  0.0022 0.0277 0.0280
v  0.0016 0.0283 0.0268
v  0.0010 0.0280 0.0260
v  0.0024 0.0285 0.0275
v  0.0033 0.0284 0.0282
v  0.0033 0.0286 0.0280
v  0.0026 0.0287 0.0271
v  0.0029 0.0287 0.0265
v  0.0023 0.0285 0.0261
v  0.0018 0.0285 0.0265
v  0.0034 0.0288 0.0275
v  0.0036 0.0288 0.0268
v  0.0043 0.0284 0.0284
v  0.0032 0.0277 0.0285
v  0.0043 0.0277 0.0288
v  0.0043 0.0286 0.0282
v  0.0054 0.0285 0.0283
v  0.0054 0.0282 0.0284
v  0.0044 0.0288 0.0278
v  0.0045 0.0288 0.0270
v  0.0054 0.0287 0.0278
v  0.0053 0.0287 0.0270
v  0.0053 0.0276 0.0288
v  0.0064 0.0274 0.0285
v  0.0064 0.0281 0.0282
v  0.0064 0.0283 0.0280
v  0.0074 0.0278 0.0278
v  0.0074 0.0280 0.0276
v  0.0063 0.0285 0.0276
v  0.0071 0.0282 0.0272
v  0.0068 0.0283 0.0266
v  0.0061 0.0285 0.0269
v  0.0081 0.0274 0.0271
v  0.0081 0.0276 0.0269
v  0.0087 0.0271 0.0261
v  0.0078 0.0279 0.0266
v  0.0074 0.0280 0.0262
v  0.0083 0.0275 0.0258
v  0.0079 0.0277 0.0256
v  0.0086 0.0271 0.0250
v  0.0082 0.0273 0.0249
v  0.0041 0.0265 0.0294
v  0.0031 0.0265 0.0291
v  0.0021 0.0264 0.0286
v  0.0010 0.0249 0.0286
v  0.0020 0.0251 0.0293
v  0.0004 0.0246 0.0277
v  0.0029 0.0252 0.0298
v  0.0040 0.0252 0.0300
v  0.0017 0.0283 0.0255
v  0.0013 0.0282 0.0258
v  0.0067 0.0280 0.0254
v  0.0062 0.0282 0.0257
v  0.0058 0.0284 0.0259
v  0.0035 0.0285 0.0256
v  0.0031 0.0284 0.0253
v  0.0040 0.0285 0.0258
v  0.0046 0.0285 0.0259
v  0.0052 0.0285 0.0259
v  0.0070 0.0278 0.0250
v  0.0072 0.0275 0.0245
v  0.0027 0.0282 0.0249
v  0.0025 0.0280 0.0243
v  0.0071 0.0270 0.0234
v  0.0072 0.0273 0.0240
v  0.0069 0.0268 0.0229
v  0.0066 0.0266 0.0224
v  0.0060 0.0265 0.0220
v  0.0055 0.0265 0.0218
v  0.0049 0.0265 0.0217
v  0.0037 0.0267 0.0219
v  0.0044 0.0265 0.0217
v  0.0032 0.0269 0.0222
v  0.0028 0.0272 0.0227
v  0.0025 0.0275 0.0232
v  0.0025 0.0278 0.0238
v  0.0049 0.0277 0.0238
# 201 vertices

vn 0.4169 0.3734 0.8287
vn 0.1727 0.4232 0.8894
vn 0.1582 0.4327 0.8876
vn 0.4113 0.3937 0.8221
vn 0.6527 0.3149 0.6891
vn 0.6349 0.2920 0.7152
vn 0.8169 0.2071 0.5383
vn 0.8530 0.2130 0.4764
vn 0.9332 0.0857 0.3491
vn 0.9618 0.0799 0.2617
vn 0.7967 0.1960 0.5717
vn 0.6162 0.2694 0.7400
vn 0.9193 0.0960 0.3818
vn 0.9873 0.0043 0.1589
vn 0.9898 -0.0092 0.1424
vn 0.9933 -0.0996 -0.0588
vn 0.9909 -0.1177 -0.0647
vn 0.9838 0.1382 0.1140
vn 0.9170 0.2281 0.3271
vn 0.9914 0.0600 -0.1160
vn 0.9450 -0.0362 -0.3250
vn 0.9449 -0.1777 -0.2750
vn 0.8996 0.3646 -0.2402
vn 0.9013 0.4312 -0.0426
vn 0.8670 0.2697 -0.4189
vn 0.8527 -0.1247 -0.5073
vn 0.7734 0.2176 -0.5953
vn 0.6731 0.6602 -0.3334
vn 0.6589 0.5848 -0.4731
vn 0.4297 0.7731 -0.4665
vn 0.4297 0.8214 -0.3752
vn 0.5829 0.5506 -0.5976
vn 0.3895 0.7381 -0.5510
vn 0.4860 0.5089 -0.7105
vn 0.3278 0.7027 -0.6315
vn 0.2666 0.6986 -0.6639
vn 0.3788 0.4952 -0.7818
vn 0.2639 0.4853 -0.8335
vn 0.2043 0.6986 -0.6858
vn -0.0542 0.7383 -0.6723
vn 0.0248 0.7591 -0.6505
vn -0.0464 0.5436 -0.8381
vn -0.1963 0.5414 -0.8175
vn 0.0944 0.7149 -0.6928
vn 0.1155 0.4827 -0.8681
vn -0.1358 0.0980 -0.9859
vn 0.0964 0.0425 -0.9944
vn 0.0505 -0.2753 -0.9600
vn -0.1957 -0.2300 -0.9533
vn 0.3027 0.0865 -0.9491
vn 0.2764 -0.2526 -0.9272
vn 0.2898 -0.3725 -0.8816
vn 0.0552 -0.3743 -0.9257
vn 0.5003 -0.2200 -0.8375
vn 0.5066 -0.3677 -0.7798
vn 0.4844 0.1365 -0.8641
vn 0.7014 -0.1680 -0.6927
vn 0.7054 -0.3187 -0.6331
vn 0.6408 0.1717 -0.7483
vn 0.8515 -0.2697 -0.4496
vn 0.8570 -0.2393 -0.4564
vn 0.7252 -0.3215 -0.6088
vn 0.9432 -0.1926 -0.2708
vn 0.9833 -0.1445 -0.1105
vn 0.9565 -0.1788 -0.2305
vn 0.9987 -0.0308 0.0401
vn 0.8743 -0.1948 -0.4445
vn 0.7299 -0.3096 -0.6094
vn 0.5898 -0.3378 -0.7335
vn 0.5361 -0.3609 -0.7631
vn 0.3080 -0.3784 -0.8729
vn 0.3894 -0.3489 -0.8524
vn 0.1149 -0.3347 -0.9353
vn 0.0672 -0.3697 -0.9267
vn -0.1705 -0.3506 -0.9209
vn -0.1940 -0.3550 -0.9145
vn -0.4324 -0.3026 -0.8494
vn -0.4564 -0.2798 -0.8446
vn -0.4371 -0.1435 -0.8879
vn -0.6709 -0.2033 -0.7132
vn -0.6422 -0.0796 -0.7624
vn -0.3401 0.1711 -0.9247
vn -0.5240 0.2429 -0.8164
vn -0.6742 0.3073 -0.6715
vn -0.7917 0.0234 -0.6104
vn -0.3091 0.5968 -0.7404
vn -0.1039 0.7682 -0.6317
vn -0.4565 0.6060 -0.6514
vn -0.2035 0.7869 -0.5825
vn -0.2155 0.8513 -0.4783
vn -0.4733 0.7187 -0.5093
vn -0.2535 0.9107 -0.3262
vn -0.2366 0.8859 -0.3991
vn -0.4488 0.8186 -0.3584
vn -0.4489 0.8623 -0.2344
vn -0.7874 0.5517 -0.2751
vn -0.9700 0.2129 -0.1172
vn -0.9466 0.2981 0.1228
vn -0.7766 0.6285 -0.0429
vn -0.7575 0.4191 -0.5005
vn -0.9120 0.1167 -0.3933
vn -0.9485 -0.0105 -0.3166
vn -0.9927 0.1054 -0.0587
vn -0.8274 -0.1175 -0.5492
vn -0.8329 -0.1179 -0.5407
vn -0.9457 0.0040 -0.3249
vn -0.6676 -0.1968 -0.7180
vn -0.4197 -0.2991 -0.8570
vn -0.6454 -0.1906 -0.7396
vn -0.1766 -0.3179 -0.9315
vn -0.8353 -0.1039 -0.5399
vn -0.9533 0.0368 -0.2999
vn -0.9915 0.1140 -0.0621
vn -0.9931 0.1110 -0.0386
vn -0.9593 0.2360 0.1552
vn -0.9583 0.2435 0.1494
vn -0.9654 0.2107 0.1537
vn -0.8751 0.3093 0.3722
vn -0.8670 0.3199 0.3820
vn -0.7345 0.3629 0.5735
vn -0.7141 0.4061 0.5702
vn -0.8491 0.4341 0.3010
vn -0.7226 0.4619 0.5143
vn -0.5307 0.5328 0.6592
vn -0.5508 0.4188 0.7220
vn -0.5766 0.7619 0.2950
vn -0.6967 0.7067 0.1233
vn -0.4029 0.7995 0.4455
vn -0.3180 0.5548 0.7688
vn -0.2326 0.8102 0.5380
vn -0.2478 0.9630 0.1057
vn -0.1111 0.9848 -0.1337
vn -0.1798 0.9677 -0.1766
vn -0.3449 0.9386 -0.0013
vn -0.1140 0.9776 0.1768
vn -0.0059 0.9955 -0.0950
vn -0.0792 0.5606 0.8243
vn -0.3295 0.4495 0.8303
vn -0.0812 0.4548 0.8869
vn -0.0466 0.8212 0.5687
vn 0.1707 0.7821 0.5993
vn 0.1536 0.4942 0.8557
vn 0.0298 0.9837 0.1772
vn 0.0791 0.9938 -0.0785
vn 0.1607 0.9727 0.1673
vn 0.1490 0.9862 -0.0725
vn 0.1642 0.4186 0.8932
vn 0.3889 0.3561 0.8497
vn 0.3856 0.4808 0.7875
vn 0.3955 0.7587 0.5177
vn 0.6132 0.4488 0.6501
vn 0.5590 0.7409 0.3723
vn 0.3092 0.9412 0.1364
vn 0.4178 0.9043 0.0876
vn 0.2965 0.9489 -0.1076
vn 0.2278 0.9674 -0.1105
vn 0.7931 0.3267 0.5140
vn 0.7269 0.6150 0.3055
vn 0.8433 0.5203 0.1344
vn 0.5308 0.8462 0.0467
vn 0.3617 0.9192 -0.1558
vn 0.6108 0.7862 -0.0935
vn 0.4087 0.8783 -0.2479
vn 0.6597 0.7243 -0.2006
vn 0.4295 0.8505 -0.3037
vn -0.0814 0.4478 0.8904
vn -0.3292 0.4705 0.8187
vn -0.5443 0.4263 0.7225
vn -0.7031 0.4342 0.5631
vn -0.5207 0.4501 0.7254
vn -0.8725 0.3227 0.3668
vn -0.2974 0.4960 0.8158
vn -0.0470 0.4560 0.8888
vn -0.2368 0.9411 -0.2415
vn -0.4545 0.8856 -0.0953
vn 0.2486 0.9193 -0.3051
vn 0.1994 0.9455 -0.2575
vn 0.1789 0.9484 -0.2618
vn 0.0045 0.9562 -0.2928
vn -0.0348 0.9515 -0.3056
vn 0.0378 0.9592 -0.2803
vn 0.0626 0.9636 -0.2600
vn 0.1371 0.9591 -0.2475
vn 0.2782 0.8948 -0.3493
vn 0.2868 0.8829 -0.3717
vn -0.0585 0.9389 -0.3392
vn -0.0766 0.9286 -0.3631
vn 0.2683 0.8469 -0.4591
vn 0.2792 0.8678 -0.4110
vn 0.2513 0.8304 -0.4973
vn 0.2209 0.8129 -0.5388
vn 0.2091 0.8033 -0.5577
vn 0.1639 0.8048 -0.5705
vn 0.0745 0.8141 -0.5760
vn 0.0215 0.8209 -0.5707
vn 0.0478 0.8170 -0.5746
vn 0.0003 0.8301 -0.5576
vn -0.0302 0.8509 -0.5244
vn -0.0676 0.8784 -0.4732
vn -0.0846 0.9021 -0.4232
vn 0.1051 0.8961 -0.4313
# 201 vertex normals

vt 0.4210 0.6475 0.0000
vt 0.4286 0.6436 0.0000
vt 0.4260 0.6361 0.0000
vt 0.4162 0.6414 0.0000
vt 0.4071 0.6502 0.0000
vt 0.4143 0.6543 0.0000
vt 0.4091 0.6622 0.0000
vt 0.4014 0.6608 0.0000
vt 0.4071 0.6707 0.0000
vt 0.3991 0.6722 0.0000
vt 0.4169 0.6643 0.0000
vt 0.4205 0.6587 0.0000
vt 0.4148 0.6705 0.0000
vt 0.4144 0.6770 0.0000
vt 0.4068 0.6789 0.0000
vt 0.4157 0.6834 0.0000
vt 0.4087 0.6860 0.0000
vt 0.4171 0.6766 0.0000
vt 0.4180 0.6707 0.0000
vt 0.4185 0.6822 0.0000
vt 0.4205 0.6876 0.0000
vt 0.4178 0.6894 0.0000
vt 0.4194 0.6822 0.0000
vt 0.4182 0.6766 0.0000
vt 0.4215 0.6870 0.0000
vt 0.4240 0.6922 0.0000
vt 0.4249 0.6916 0.0000
vt 0.4219 0.6813 0.0000
vt 0.4237 0.6858 0.0000
vt 0.4253 0.6848 0.0000
vt 0.4238 0.6804 0.0000
vt 0.4264 0.6897 0.0000
vt 0.4279 0.6888 0.0000
vt 0.4304 0.6928 0.0000
vt 0.4313 0.6922 0.0000
vt 0.4358 0.6942 0.0000
vt 0.4347 0.6952 0.0000
vt 0.4400 0.6963 0.0000
vt 0.4404 0.6952 0.0000
vt 0.4530 0.6913 0.0000
vt 0.4484 0.6937 0.0000
vt 0.4492 0.6947 0.0000
vt 0.4536 0.6923 0.0000
vt 0.4446 0.6952 0.0000
vt 0.4445 0.6962 0.0000
vt 0.4501 0.6974 0.0000
vt 0.4446 0.6985 0.0000
vt 0.4450 0.6998 0.0000
vt 0.4507 0.6984 0.0000
vt 0.4395 0.6987 0.0000
vt 0.4393 0.6998 0.0000
vt 0.4388 0.7028 0.0000
vt 0.4450 0.7028 0.0000
vt 0.4334 0.6985 0.0000
vt 0.4319 0.7012 0.0000
vt 0.4334 0.6977 0.0000
vt 0.4281 0.6958 0.0000
vt 0.4264 0.6984 0.0000
vt 0.4286 0.6951 0.0000
vt 0.4215 0.6944 0.0000
vt 0.4155 0.6989 0.0000
vt 0.4214 0.7039 0.0000
vt 0.4114 0.6923 0.0000
vt 0.4014 0.6899 0.0000
vt 0.4050 0.6974 0.0000
vt 0.3993 0.6820 0.0000
vt 0.4095 0.7034 0.0000
vt 0.4155 0.7091 0.0000
vt 0.4231 0.7146 0.0000
vt 0.4279 0.7078 0.0000
vt 0.4365 0.7103 0.0000
vt 0.4330 0.7174 0.0000
vt 0.4440 0.7183 0.0000
vt 0.4446 0.7107 0.0000
vt 0.4536 0.7088 0.0000
vt 0.4514 0.7013 0.0000
vt 0.4617 0.7042 0.0000
vt 0.4580 0.6977 0.0000
vt 0.4560 0.6952 0.0000
vt 0.4632 0.6924 0.0000
vt 0.4604 0.6905 0.0000
vt 0.4552 0.6944 0.0000
vt 0.4593 0.6899 0.0000
vt 0.4626 0.6848 0.0000
vt 0.4637 0.6851 0.0000
vt 0.4575 0.6881 0.0000
vt 0.4566 0.6875 0.0000
vt 0.4602 0.6834 0.0000
vt 0.4586 0.6829 0.0000
vt 0.4596 0.6780 0.0000
vt 0.4615 0.6780 0.0000
vt 0.4577 0.6686 0.0000
vt 0.4591 0.6730 0.0000
vt 0.4611 0.6729 0.0000
vt 0.4596 0.6676 0.0000
vt 0.4637 0.6722 0.0000
vt 0.4648 0.6722 0.0000
vt 0.4630 0.6663 0.0000
vt 0.4621 0.6667 0.0000
vt 0.4641 0.6784 0.0000
vt 0.4653 0.6786 0.0000
vt 0.4687 0.6787 0.0000
vt 0.4681 0.6715 0.0000
vt 0.4662 0.6860 0.0000
vt 0.4738 0.6889 0.0000
vt 0.4762 0.6789 0.0000
vt 0.4690 0.6973 0.0000
vt 0.4657 0.7113 0.0000
vt 0.4744 0.7032 0.0000
vt 0.4554 0.7163 0.0000
vt 0.4813 0.6916 0.0000
vt 0.4839 0.6789 0.0000
vt 0.4753 0.6697 0.0000
vt 0.4828 0.6667 0.0000
vt 0.4727 0.6612 0.0000
vt 0.4790 0.6565 0.0000
vt 0.4661 0.6648 0.0000
vt 0.4621 0.6587 0.0000
vt 0.4674 0.6536 0.0000
vt 0.4573 0.6542 0.0000
vt 0.4613 0.6479 0.0000
vt 0.4596 0.6610 0.0000
vt 0.4558 0.6570 0.0000
vt 0.4503 0.6539 0.0000
vt 0.4512 0.6510 0.0000
vt 0.4549 0.6576 0.0000
vt 0.4589 0.6614 0.0000
vt 0.4497 0.6547 0.0000
vt 0.4446 0.6524 0.0000
vt 0.4442 0.6531 0.0000
vt 0.4490 0.6574 0.0000
vt 0.4483 0.6602 0.0000
vt 0.4520 0.6618 0.0000
vt 0.4536 0.6596 0.0000
vt 0.4442 0.6561 0.0000
vt 0.4442 0.6595 0.0000
vt 0.4388 0.6520 0.0000
vt 0.4446 0.6488 0.0000
vt 0.4379 0.6492 0.0000
vt 0.4389 0.6533 0.0000
vt 0.4331 0.6544 0.0000
vt 0.4326 0.6534 0.0000
vt 0.4393 0.6557 0.0000
vt 0.4397 0.6595 0.0000
vt 0.4342 0.6571 0.0000
vt 0.4354 0.6602 0.0000
vt 0.4317 0.6503 0.0000
vt 0.4258 0.6534 0.0000
vt 0.4276 0.6564 0.0000
vt 0.4279 0.6570 0.0000
vt 0.4233 0.6602 0.0000
vt 0.4238 0.6611 0.0000
vt 0.4297 0.6595 0.0000
vt 0.4264 0.6626 0.0000
vt 0.4283 0.6644 0.0000
vt 0.4315 0.6624 0.0000
vt 0.4201 0.6651 0.0000
vt 0.4205 0.6657 0.0000
vt 0.4187 0.6711 0.0000
vt 0.4231 0.6665 0.0000
vt 0.4258 0.6675 0.0000
vt 0.4219 0.6715 0.0000
vt 0.4240 0.6716 0.0000
vt 0.4214 0.6762 0.0000
vt 0.4233 0.6759 0.0000
vt 0.4370 0.6410 0.0000
vt 0.4454 0.6417 0.0000
vt 0.4536 0.6436 0.0000
vt 0.4652 0.6410 0.0000
vt 0.4552 0.6359 0.0000
vt 0.4735 0.6483 0.0000
vt 0.4454 0.6337 0.0000
vt 0.4356 0.6341 0.0000
vt 0.4554 0.6643 0.0000
vt 0.4571 0.6633 0.0000
vt 0.4306 0.6705 0.0000
vt 0.4324 0.6684 0.0000
vt 0.4345 0.6668 0.0000
vt 0.4459 0.6655 0.0000
vt 0.4486 0.6665 0.0000
vt 0.4435 0.6650 0.0000
vt 0.4400 0.6650 0.0000
vt 0.4372 0.6657 0.0000
vt 0.4295 0.6732 0.0000
vt 0.4288 0.6765 0.0000
vt 0.4511 0.6687 0.0000
vt 0.4523 0.6712 0.0000
vt 0.4304 0.6823 0.0000
vt 0.4294 0.6791 0.0000
vt 0.4319 0.6850 0.0000
vt 0.4342 0.6873 0.0000
vt 0.4374 0.6889 0.0000
vt 0.4404 0.6890 0.0000
vt 0.4433 0.6889 0.0000
vt 0.4493 0.6869 0.0000
vt 0.4461 0.6884 0.0000
vt 0.4516 0.6841 0.0000
vt 0.4530 0.6811 0.0000
vt 0.4536 0.6773 0.0000
vt 0.4536 0.6743 0.0000
vt 0.4411 0.6770 0.0000
# 201 texture coords

o left_y_button
g left_y_button
usemtl Material__2
s 1
f 1/1/1 2/2/2 3/3/3 4/4/4 
f 4/4/4 5/5/5 6/6/6 1/1/1 
f 7/7/7 6/6/6 5/5/5 8/8/8 
f 9/9/9 7/7/7 8/8/8 10/10/10 
f 6/6/6 7/7/7 11/11/11 12/12/12 
f 7/7/7 9/9/9 13/13/13 11/11/11 
f 14/14/14 13/13/13 9/9/9 15/15/15 
f 16/16/16 14/14/14 15/15/15 17/17/17 
f 13/13/13 14/14/14 18/18/18 19/19/19 
f 14/14/14 16/16/16 20/20/20 18/18/18 
f 21/21/21 20/20/20 16/16/16 22/22/22 
f 23/23/23 24/24/24 18/18/18 20/20/20 
f 21/21/21 25/25/25 23/23/23 20/20/20 
f 21/21/21 26/26/26 27/27/27 25/25/25 
f 28/28/28 29/29/29 30/30/30 31/31/31 
f 32/32/32 33/33/33 30/30/30 29/29/29 
f 33/33/33 32/32/32 34/34/34 35/35/35 
f 36/36/36 37/37/37 38/38/38 39/39/39 
f 37/37/37 36/36/36 35/35/35 34/34/34 
f 40/40/40 41/41/41 42/42/42 43/43/43 
f 42/42/42 41/41/41 44/44/44 45/45/45 
f 46/46/46 47/47/47 48/48/48 49/49/49 
f 47/47/47 50/50/50 51/51/51 48/48/48 
f 45/45/45 44/44/44 39/39/39 38/38/38 
f 51/51/51 52/52/52 53/53/53 48/48/48 
f 52/52/52 51/51/51 54/54/54 55/55/55 
f 51/51/51 50/50/50 56/56/56 54/54/54 
f 55/55/55 54/54/54 57/57/57 58/58/58 
f 54/54/54 56/56/56 59/59/59 57/57/57 
f 58/58/58 57/57/57 26/26/26 60/60/60 
f 57/57/57 59/59/59 27/27/27 26/26/26 
f 60/60/60 61/61/61 62/62/62 58/58/58 
f 61/61/61 60/60/60 22/22/22 63/63/63 
f 22/22/22 60/60/60 26/26/26 21/21/21 
f 17/17/17 63/63/63 22/22/22 16/16/16 
f 63/63/63 17/17/17 64/64/64 65/65/65 
f 17/17/17 15/15/15 66/66/66 64/64/64 
f 10/10/10 66/66/66 15/15/15 9/9/9 
f 65/65/65 67/67/67 61/61/61 63/63/63 
f 61/61/61 67/67/67 68/68/68 62/62/62 
f 62/62/62 68/68/68 69/69/69 70/70/70 
f 58/58/58 62/62/62 70/70/70 55/55/55 
f 55/55/55 70/70/70 71/71/71 52/52/52 
f 71/71/71 72/72/72 73/73/73 74/74/74 
f 72/72/72 71/71/71 70/70/70 69/69/69 
f 52/52/52 71/71/71 74/74/74 53/53/53 
f 53/53/53 74/74/74 75/75/75 76/76/76 
f 76/76/76 75/75/75 77/77/77 78/78/78 
f 76/76/76 49/49/49 48/48/48 53/53/53 
f 49/49/49 76/76/76 78/78/78 79/79/79 
f 79/79/79 78/78/78 80/80/80 81/81/81 
f 49/49/49 79/79/79 82/82/82 46/46/46 
f 79/79/79 81/81/81 83/83/83 82/82/82 
f 84/84/84 83/83/83 81/81/81 85/85/85 
f 43/43/43 86/86/86 87/87/87 40/40/40 
f 86/86/86 88/88/88 89/89/89 87/87/87 
f 90/90/90 89/89/89 88/88/88 91/91/91 
f 92/92/92 93/93/93 94/94/94 95/95/95 
f 94/94/94 93/93/93 90/90/90 91/91/91 
f 96/96/96 97/97/97 98/98/98 99/99/99 
f 97/97/97 96/96/96 100/100/100 101/101/101 
f 102/102/102 103/103/103 97/97/97 101/101/101 
f 101/101/101 85/85/85 104/104/104 102/102/102 
f 85/85/85 101/101/101 100/100/100 84/84/84 
f 102/102/102 104/104/104 105/105/105 106/106/106 
f 105/105/105 104/104/104 80/80/80 107/107/107 
f 80/80/80 104/104/104 85/85/85 81/81/81 
f 107/107/107 80/80/80 78/78/78 77/77/77 
f 77/77/77 108/108/108 109/109/109 107/107/107 
f 108/108/108 77/77/77 75/75/75 110/110/110 
f 110/110/110 75/75/75 74/74/74 73/73/73 
f 111/111/111 105/105/105 107/107/107 109/109/109 
f 111/111/111 112/112/112 106/106/106 105/105/105 
f 113/113/113 106/106/106 112/112/112 114/114/114 
f 115/115/115 113/113/113 114/114/114 116/116/116 
f 106/106/106 113/113/113 103/103/103 102/102/102 
f 113/113/113 115/115/115 117/117/117 103/103/103 
f 118/118/118 117/117/117 115/115/115 119/119/119 
f 120/120/120 118/118/118 119/119/119 121/121/121 
f 117/117/117 118/118/118 122/122/122 98/98/98 
f 118/118/118 120/120/120 123/123/123 122/122/122 
f 124/124/124 123/123/123 120/120/120 125/125/125 
f 123/123/123 126/126/126 127/127/127 122/122/122 
f 126/126/126 123/123/123 124/124/124 128/128/128 
f 128/128/128 124/124/124 129/129/129 130/130/130 
f 131/131/131 132/132/132 133/133/133 134/134/134 
f 131/131/131 135/135/135 136/136/136 132/132/132 
f 137/137/137 129/129/129 138/138/138 139/139/139 
f 129/129/129 124/124/124 125/125/125 138/138/138 
f 137/137/137 140/140/140 130/130/130 129/129/129 
f 141/141/141 140/140/140 137/137/137 142/142/142 
f 135/135/135 143/143/143 144/144/144 136/136/136 
f 143/143/143 145/145/145 146/146/146 144/144/144 
f 142/142/142 147/147/147 148/148/148 149/149/149 
f 142/142/142 137/137/137 139/139/139 147/147/147 
f 149/149/149 150/150/150 141/141/141 142/142/142 
f 150/150/150 149/149/149 151/151/151 152/152/152 
f 153/153/153 154/154/154 155/155/155 156/156/156 
f 157/157/157 151/151/151 12/12/12 11/11/11 
f 151/151/151 149/149/149 148/148/148 12/12/12 
f 152/152/152 151/151/151 157/157/157 158/158/158 
f 159/159/159 158/158/158 157/157/157 19/19/19 
f 154/154/154 160/160/160 161/161/161 155/155/155 
f 160/160/160 162/162/162 163/163/163 161/161/161 
f 24/24/24 159/159/159 19/19/19 18/18/18 
f 162/162/162 164/164/164 165/165/165 163/163/163 
f 12/12/12 148/148/148 1/1/1 6/6/6 
f 2/2/2 1/1/1 148/148/148 147/147/147 
f 166/166/166 2/2/2 147/147/147 139/139/139 
f 167/167/167 166/166/166 139/139/139 138/138/138 
f 168/168/168 167/167/167 138/138/138 125/125/125 
f 121/121/121 168/168/168 125/125/125 120/120/120 
f 168/168/168 121/121/121 169/169/169 170/170/170 
f 121/121/121 119/119/119 171/171/171 169/169/169 
f 116/116/116 171/171/171 119/119/119 115/115/115 
f 170/170/170 172/172/172 167/167/167 168/168/168 
f 166/166/166 167/167/167 172/172/172 173/173/173 
f 166/166/166 173/173/173 3/3/3 2/2/2 
f 19/19/19 157/157/157 11/11/11 13/13/13 
f 134/134/134 133/133/133 174/174/174 175/175/175 
f 122/122/122 127/127/127 99/99/99 98/98/98 
f 95/95/95 175/175/175 174/174/174 92/92/92 
f 103/103/103 117/117/117 98/98/98 97/97/97 
f 31/31/31 165/165/165 164/164/164 28/28/28 
f 153/153/153 156/156/156 146/146/146 145/145/145 
f 155/155/155 161/161/161 176/176/176 177/177/177 
f 156/156/156 155/155/155 177/177/177 178/178/178 
f 132/132/132 179/179/179 180/180/180 133/133/133 
f 136/136/136 181/181/181 179/179/179 132/132/132 
f 144/144/144 182/182/182 181/181/181 136/136/136 
f 146/146/146 156/156/156 178/178/178 183/183/183 
f 163/163/163 184/184/184 176/176/176 161/161/161 
f 185/185/185 184/184/184 163/163/163 165/165/165 
f 92/92/92 174/174/174 186/186/186 187/187/187 
f 133/133/133 180/180/180 186/186/186 174/174/174 
f 31/31/31 30/30/30 188/188/188 189/189/189 
f 30/30/30 33/33/33 190/190/190 188/188/188 
f 33/33/33 35/35/35 191/191/191 190/190/190 
f 35/35/35 36/36/36 192/192/192 191/191/191 
f 31/31/31 189/189/189 185/185/185 165/165/165 
f 36/36/36 39/39/39 193/193/193 192/192/192 
f 39/39/39 44/44/44 194/194/194 193/193/193 
f 41/41/41 40/40/40 195/195/195 196/196/196 
f 44/44/44 41/41/41 196/196/196 194/194/194 
f 40/40/40 87/87/87 197/197/197 195/195/195 
f 89/89/89 198/198/198 197/197/197 87/87/87 
f 199/199/199 198/198/198 89/89/89 90/90/90 
f 93/93/93 200/200/200 199/199/199 90/90/90 
f 93/93/93 92/92/92 187/187/187 200/200/200 
f 183/183/183 182/182/182 144/144/144 146/146/146 
f 176/176/176 201/201/201 177/177/177 
f 177/177/177 201/201/201 178/178/178 
f 179/179/179 201/201/201 180/180/180 
f 201/201/201 179/179/179 181/181/181 
f 182/182/182 201/201/201 181/181/181 
f 178/178/178 201/201/201 183/183/183 
f 184/184/184 201/201/201 176/176/176 
f 185/185/185 201/201/201 184/184/184 
f 186/186/186 201/201/201 187/187/187 
f 180/180/180 201/201/201 186/186/186 
f 188/188/188 201/201/201 189/189/189 
f 190/190/190 201/201/201 188/188/188 
f 191/191/191 201/201/201 190/190/190 
f 192/192/192 201/201/201 191/191/191 
f 189/189/189 201/201/201 185/185/185 
f 193/193/193 201/201/201 192/192/192 
f 194/194/194 201/201/201 193/193/193 
f 195/195/195 201/201/201 196/196/196 
f 196/196/196 201/201/201 194/194/194 
f 197/197/197 201/201/201 195/195/195 
f 198/198/198 201/201/201 197/197/197 
f 199/199/199 201/201/201 198/198/198 
f 200/200/200 201/201/201 199/199/199 
f 187/187/187 201/201/201 200/200/200 
f 182/182/182 183/183/183 201/201/201 
f 24/24/24 23/23/23 28/28/28 164/164/164 
f 23/23/23 25/25/25 29/29/29 28/28/28 
f 25/25/25 27/27/27 32/32/32 29/29/29 
f 34/34/34 32/32/32 27/27/27 59/59/59 
f 50/50/50 38/38/38 37/37/37 56/56/56 
f 56/56/56 37/37/37 34/34/34 59/59/59 
f 82/82/82 43/43/43 42/42/42 46/46/46 
f 46/46/46 42/42/42 45/45/45 47/47/47 
f 38/38/38 50/50/50 47/47/47 45/45/45 
f 43/43/43 82/82/82 83/83/83 86/86/86 
f 86/86/86 83/83/83 84/84/84 88/88/88 
f 100/100/100 91/91/91 88/88/88 84/84/84 
f 94/94/94 96/96/96 99/99/99 95/95/95 
f 96/96/96 94/94/94 91/91/91 100/100/100 
f 127/127/127 126/126/126 134/134/134 175/175/175 
f 126/126/126 128/128/128 131/131/131 134/134/134 
f 128/128/128 130/130/130 135/135/135 131/131/131 
f 130/130/130 140/140/140 143/143/143 135/135/135 
f 141/141/141 145/145/145 143/143/143 140/140/140 
f 145/145/145 141/141/141 150/150/150 153/153/153 
f 150/150/150 152/152/152 154/154/154 153/153/153 
f 152/152/152 158/158/158 160/160/160 154/154/154 
f 158/158/158 159/159/159 162/162/162 160/160/160 
f 159/159/159 24/24/24 164/164/164 162/162/162 
f 99/99/99 127/127/127 175/175/175 95/95/95 
# 175 polygons - 25 triangles

